<svg viewBox="0 0 50 29" color="currentColor" fill="none" xmlns="http://www.w3.org/2000/svg">
  <path fill-rule="evenodd" clip-rule="evenodd" fill="currentColor"
    d="M22.9411 15.9399H26.7301C31.8457 15.9399 36.0283 20.1595 36.0283 25.3062C28.9389 29.4043 20.8974 29.5258 13.6429 25.3062C13.6429 20.1595 17.8255 15.9399 22.9411 15.9399ZM37.9133 17.7684H41.1439C45.5105 17.7684 49.0775 21.3678 49.0775 25.7665C44.6474 28.3238 39.7857 29.0718 35.0699 27.8699C36.0283 27.4096 36.9232 26.8917 37.8372 26.3611C37.8372 23.1708 37.3992 20.7796 35.3048 18.2159C36.1235 17.9282 36.9994 17.7684 37.9133 17.7684ZM38.5988 5.07754C43.0543 2.7056 44.6029 6.44572 44.5141 7.59653L44.3173 10.1539C45.8215 9.7447 44.6347 11.9504 44.2602 12.4938C44.2602 12.4938 42.9781 15.9207 41.5501 16.3043C40.5981 16.56 38.3957 16.56 37.4437 16.3043C36.0156 15.9207 34.7336 12.4938 34.7336 12.4938C34.3591 11.9504 33.3055 10.1411 34.6955 10.1411C34.6383 9.29077 34.467 8.36373 34.4606 7.5262C34.4289 5.05836 36.8978 4.48935 38.5988 5.07754ZM8.53368 17.7684H11.7642C12.6718 17.7684 13.5477 17.9282 14.3665 18.2159C12.272 20.7796 11.8341 23.1644 11.8341 26.3611C12.748 26.8917 13.6366 27.4096 14.5886 27.8699C9.94903 29.0463 5.09368 28.3814 0.59375 25.7665C0.59375 21.3678 4.16704 17.7684 8.53368 17.7684ZM9.21914 5.07754C13.6746 2.7056 15.2233 6.44572 15.1344 7.59653L14.9377 10.1539C16.4419 9.7447 15.255 11.9504 14.8805 12.4938C14.8805 12.4938 13.5985 15.9207 12.1704 16.3043C11.2184 16.56 9.01604 16.56 8.06401 16.3043C6.63597 15.9207 5.3539 12.4938 5.3539 12.4938C4.97944 11.9504 3.91951 10.1411 5.31582 10.1411C5.2587 9.29077 5.08733 8.36373 5.08099 7.5262C5.04925 5.05836 7.52453 4.48935 9.21914 5.07754ZM23.7535 1.0689C28.9706 -1.71221 30.7858 2.66724 30.6779 4.02264L30.4431 7.01473C32.2075 6.53523 30.8175 9.11815 30.3796 9.75109C30.3796 9.75109 28.8754 13.7661 27.2062 14.2201C26.0891 14.5205 23.5123 14.5205 22.3952 14.2201C20.7197 13.7661 19.2218 9.75109 19.2218 9.75109C18.7839 9.11815 17.5462 6.99555 19.1774 6.99555C19.1076 6.00458 18.9108 4.91131 18.8981 3.93313C18.86 1.04972 21.7606 0.378417 23.7535 1.0689Z" />
</svg>
