<svg viewBox="0 0 19 20" fill="none" xmlns="http://www.w3.org/2000/svg">
  <path
    d="M16.625 3H8.55V2.5C8.55 1.121 7.4841 0 6.175 0H2.375C1.0659 0 0 1.121 0 2.5V17.5C0 18.879 1.0659 20 2.375 20H16.625C17.9341 20 19 18.879 19 17.5V5.5C19 4.121 17.9341 3 16.625 3ZM12.825 11H9.5V14.5C9.5 14.776 9.2872 15 9.025 15C8.7628 15 8.55 14.776 8.55 14.5V11H5.225C4.9628 11 4.75 10.776 4.75 10.5C4.75 10.224 4.9628 10 5.225 10H8.55V6.5C8.55 6.224 8.7628 6 9.025 6C9.2872 6 9.5 6.224 9.5 6.5V10H12.825C13.0872 10 13.3 10.224 13.3 10.5C13.3 10.776 13.0872 11 12.825 11Z"
    fill="#231F20" />
</svg>
