<svg xmlns="http://www.w3.org/2000/svg" viewBox="0 0 28 24" fill="none">
  <path
    d="M23.6149 14.4435V21.3754C23.6149 21.4643 23.556 21.5235 23.4675 21.5235H2.2701C2.18165 21.5235 2.12269 21.4643 2.12269 21.3754V6.534H20.254L23.0253 0.638916H2.00476C0.913936 0.638916 0 1.52762 0 2.65332V21.6716C0 22.7973 0.884454 23.686 2.00476 23.686H23.7918C24.9121 23.686 25.7966 22.7973 25.7966 21.6716V10.0888L23.9982 13.9399C23.8508 14.1473 23.7623 14.2954 23.6149 14.4435ZM8.54972 2.71256C9.02143 2.71256 9.40469 3.09767 9.40469 3.57165C9.40469 4.04562 9.02143 4.43073 8.54972 4.43073C8.07801 4.43073 7.69475 4.04562 7.69475 3.57165C7.69475 3.09767 8.07801 2.71256 8.54972 2.71256ZM5.92584 2.71256C6.39755 2.71256 6.78081 3.09767 6.78081 3.57165C6.78081 4.04562 6.39755 4.43073 5.92584 4.43073C5.45413 4.43073 5.07087 4.04562 5.07087 3.57165C5.07087 3.09767 5.45413 2.71256 5.92584 2.71256ZM3.33144 2.71256C3.80315 2.71256 4.18642 3.09767 4.18642 3.57165C4.18642 4.04562 3.80315 4.43073 3.33144 4.43073C2.85973 4.43073 2.47647 4.04562 2.47647 3.57165C2.44699 3.09767 2.83025 2.71256 3.33144 2.71256Z"
    fill="currentColor" />
  <path
    d="M5.01204 10.9183H18.1904L19.1928 8.7854H5.01204C4.80566 8.7854 4.65826 8.96314 4.65826 9.17051V10.5332C4.62877 10.7406 4.80566 10.9183 5.01204 10.9183Z"
    fill="currentColor" />
  <path
    d="M4.62866 14.7103C4.62866 14.9176 4.77607 15.0658 4.98244 15.0658H18.2787C18.1903 14.888 18.1608 14.7103 18.1313 14.5029L17.9544 12.9329H4.98244C4.77607 12.9329 4.62866 13.1106 4.62866 13.2883V14.7103Z"
    fill="currentColor" />
  <path
    d="M4.62866 18.8574C4.62866 19.0648 4.80555 19.2425 5.01193 19.2425H20.7847C20.9911 19.2425 21.168 19.0648 21.168 18.8574V17.4947C21.168 17.2874 20.9911 17.1096 20.7847 17.1096H5.01193C4.80555 17.1096 4.62866 17.2874 4.62866 17.4947V18.8574Z"
    fill="currentColor" />
  <path
    d="M22.5241 13.2882L22.8779 12.518L19.8413 11.0664L19.4875 11.8366C19.458 11.9255 19.4285 12.0144 19.458 12.1032L19.7233 14.325C19.7823 14.6805 20.1951 14.8878 20.4899 14.6805L22.3472 13.4659C22.4357 13.4659 22.4946 13.377 22.5241 13.2882Z"
    fill="currentColor" />
  <path d="M20.4014 9.91108L23.4675 11.333L26.7694 4.28261L23.7033 2.83105L20.4014 9.91108Z" fill="currentColor" />
  <path
    d="M27.713 1.05369L25.5904 0.0464858C25.325 -0.0720083 25.0302 0.0464858 24.9123 0.283474L24.2637 1.64616L27.3003 3.09771L27.9489 1.73503C28.0668 1.46842 27.9784 1.17218 27.713 1.05369Z"
    fill="currentColor" />
</svg>
