<svg viewBox="0 0 27 23" fill="none" xmlns="http://www.w3.org/2000/svg">
  <path
    fill="currentColor"
    d="M5.38889 0.395023C5.26771 0.395442 5.15164 0.440121 5.06602 0.519272C4.98041 0.598423 4.93221 0.705626 4.93195 0.81747V7.8386L0.480171 11.9473C0.415091 12.0064 0.370615 12.0822 0.352439 12.1648C0.334263 12.2474 0.343215 12.3331 0.378147 12.411C0.41308 12.4888 0.472404 12.5553 0.54852 12.6019C0.624636 12.6484 0.71408 12.673 0.805395 12.6724H4.93195V21.9835C4.93244 22.0952 4.98074 22.2022 5.06633 22.2811C5.15192 22.3601 5.26786 22.4047 5.38889 22.4051H10.8934C11.015 22.4055 11.1319 22.3614 11.2182 22.2823C11.3046 22.2032 11.3534 22.0957 11.3539 21.9835V16.481H15.0199V21.9835C15.0204 22.0953 15.0688 22.2024 15.1546 22.2814C15.2404 22.3604 15.3566 22.4049 15.4777 22.4051H20.9822C21.1038 22.4055 21.2207 22.3614 21.3071 22.2823C21.3934 22.2032 21.4422 22.0957 21.4427 21.9835V12.6724H25.5693C25.6606 12.673 25.75 12.6484 25.8261 12.6019C25.9023 12.5553 25.9616 12.4888 25.9965 12.411C26.0315 12.3331 26.0404 12.2474 26.0222 12.1648C26.004 12.0822 25.9596 12.0064 25.8945 11.9473L13.5103 0.520688C13.4677 0.481254 13.4171 0.44996 13.3614 0.428612C13.3056 0.407264 13.2459 0.396292 13.1856 0.396292C13.1252 0.396292 13.0655 0.407264 13.0098 0.428612C12.954 0.44996 12.9034 0.481254 12.8608 0.520688L9.51903 3.60426V0.81747C9.51891 0.761809 9.50689 0.706705 9.48367 0.655336C9.46044 0.603967 9.42647 0.557338 9.3837 0.5181C9.34093 0.478863 9.29019 0.447776 9.23439 0.426659C9.17859 0.405541 9.11883 0.394798 9.05853 0.395023H5.38889Z"
    />
</svg>
