<svg viewBox="0 0 62 63" fill="none" xmlns="http://www.w3.org/2000/svg">
<path d="M31.25 0.736816C14.3055 0.736816 0.503906 14.5384 0.503906 31.4829C0.503906 48.4274 14.3055 62.229 31.25 62.229C48.1945 62.229 61.9961 48.4274 61.9961 31.4829C61.9961 14.5384 48.1945 0.736816 31.25 0.736816ZM31.25 58.9494C16.0819 58.9494 3.78349 46.651 3.78349 31.4829C3.78349 16.3148 16.0819 4.0164 31.25 4.0164C46.4181 4.0164 58.7165 16.3148 58.7165 31.4829C58.7165 46.651 46.4181 58.9494 31.25 58.9494Z" fill="currentColor"/>
<path d="M43.1385 27.7248L27.0139 18.501C25.784 17.8178 24.4176 17.7494 23.3244 18.296C22.2312 18.911 21.6846 20.0725 21.6846 21.5756V41.3214C21.6846 42.8246 22.2995 43.9861 23.3244 44.601C23.8026 44.8743 24.3492 45.011 24.8958 45.011C25.5791 45.011 26.3306 44.806 27.0139 44.396L43.1385 35.1722C44.71 34.284 45.5982 32.9175 45.5982 31.4144C45.5982 30.0479 44.71 28.6814 43.1385 27.7248ZM41.4987 32.3709L25.3741 41.5947C25.2375 41.6631 25.1008 41.7314 25.0325 41.7314C25.0325 41.6631 24.9642 41.5264 24.9642 41.3898V21.5756C24.9642 21.439 24.9642 21.3023 25.0325 21.234C25.1008 21.234 25.2375 21.3023 25.3741 21.3706L41.4987 30.5945C42.0453 30.9361 42.3186 31.2777 42.3186 31.4827C42.3186 31.6877 42.0453 32.0293 41.4987 32.3709Z" fill="currentColor"/>
</svg>
