<svg viewBox="0 0 28 28" fill="none" xmlns="http://www.w3.org/2000/svg">
  <path
    d="M25.9011 0.903076H1.75549C0.950632 0.903076 0.414062 1.43965 0.414062 2.2445V26.3901C0.414062 27.195 0.950632 27.7316 1.75549 27.7316H25.9011C26.706 27.7316 27.2426 27.195 27.2426 26.3901V2.2445C27.2426 1.43965 26.706 0.903076 25.9011 0.903076ZM8.46261 23.7073C8.46261 24.5121 7.92604 25.0487 7.12119 25.0487H4.43834C3.63348 25.0487 3.09691 24.5121 3.09691 23.7073V7.6102C3.09691 6.80534 3.63348 6.26877 4.43834 6.26877H7.12119C7.92604 6.26877 8.46261 6.80534 8.46261 7.6102V23.7073ZM16.5112 23.7073C16.5112 24.5121 15.9746 25.0487 15.1697 25.0487H12.4869C11.682 25.0487 11.1455 24.5121 11.1455 23.7073V12.9759C11.1455 12.171 11.682 11.6345 12.4869 11.6345H15.1697C15.9746 11.6345 16.5112 12.171 16.5112 12.9759V23.7073ZM24.5597 23.7073C24.5597 24.5121 24.0231 25.0487 23.2183 25.0487H20.5354C19.7306 25.0487 19.194 24.5121 19.194 23.7073V18.3416C19.194 17.5367 19.7306 17.0002 20.5354 17.0002H23.2183C24.0231 17.0002 24.5597 17.5367 24.5597 18.3416V23.7073Z"
    fill="currentColor" />
</svg>
