<svg viewBox="0 0 17 17" fill="none" xmlns="http://www.w3.org/2000/svg">
  <path
    d="M8.5 0.0270996C4.08919 0.0270996 0.5 3.61629 0.5 8.0271C0.5 12.4379 4.08919 16.0271 8.5 16.0271C12.9108 16.0271 16.5 12.4379 16.5 8.0271C16.5 3.61629 12.9108 0.0270996 8.5 0.0270996ZM12.4784 6.31899L7.87297 10.6866C7.74324 10.7947 7.59189 10.8595 7.41892 10.8595C7.24595 10.8595 7.07297 10.7947 6.96486 10.6649L4.54324 8.17845C4.28378 7.91899 4.30541 7.50818 4.56486 7.27034C4.82432 7.01088 5.23514 7.03251 5.47297 7.29196L7.44054 9.3244L11.5919 5.38926C11.8514 5.15142 12.2622 5.15142 12.5 5.41088C12.7378 5.64872 12.7378 6.05953 12.4784 6.31899Z"
    fill="currentColor" />
</svg>
