<svg viewBox="0 0 38 29" fill="none" xmlns="http://www.w3.org/2000/svg">
  <path
    d="M8.55133 28.3938C10.363 28.3938 11.8316 26.9252 11.8316 25.1136C11.8316 23.3019 10.363 21.8333 8.55133 21.8333C6.73969 21.8333 5.27107 23.3019 5.27107 25.1136C5.27107 26.9252 6.73969 28.3938 8.55133 28.3938Z"
    fill="currentColor" />
  <path
    d="M21.0163 0.183594H2.64687C1.59718 0.183594 0.678711 1.10207 0.678711 2.15175V20.5212C0.678711 21.5709 1.59718 22.4893 2.64687 22.4893H3.95897C3.95897 19.9964 6.05833 17.897 8.55133 17.897C11.0443 17.897 13.1437 19.9964 13.1437 22.4893H22.9845V2.15175C22.9845 1.10207 22.066 0.183594 21.0163 0.183594Z"
    fill="currentColor" />
  <path
    d="M30.8571 25.7696C32.6687 25.7696 34.1373 24.301 34.1373 22.4893C34.1373 20.6777 32.6687 19.2091 30.8571 19.2091C29.0455 19.2091 27.5768 20.6777 27.5768 22.4893C27.5768 24.301 29.0455 25.7696 30.8571 25.7696Z"
    fill="currentColor" />
  <path
    d="M37.024 10.5492L32.694 4.90717C32.4316 4.38232 31.7756 4.1199 31.2507 4.1199H24.2966V22.4893H26.2647C26.2647 19.9964 28.3641 17.897 30.8571 17.897C33.3501 17.897 35.4494 19.9964 35.4494 22.4893C36.4991 22.4893 37.4176 21.5709 37.4176 20.5212V11.7301C37.4176 11.3365 37.2864 10.9428 37.024 10.5492ZM34.1373 11.3365C34.1373 11.7301 33.8749 11.9925 33.4813 11.9925H27.5768C27.1832 11.9925 26.9208 11.7301 26.9208 11.3365V6.74411C26.9208 6.35048 27.1832 6.08806 27.5768 6.08806H30.8571C31.1195 6.08806 31.2507 6.21927 31.3819 6.35048L34.0061 9.89316C34.1373 10.0244 34.1373 10.1556 34.1373 10.2868V11.3365Z"
    fill="currentColor" />
</svg>
