<?xml version="1.0" encoding="utf-8"?>
<!-- Generator: Adobe Illustrator 25.2.0, SVG Export Plug-In . SVG Version: 6.00 Build 0)  -->
<svg version="1.1" id="Layer_1" xmlns="http://www.w3.org/2000/svg" xmlns:xlink="http://www.w3.org/1999/xlink" x="0px" y="0px"
	 viewBox="0 0 23 23" style="enable-background:new 0 0 23 23;" xml:space="preserve">
<style type="text/css">
	.st0{fill:#FAEFDC;stroke:#FFFFFF;}
	.st1{fill:#F2B03A;}
</style>
<circle class="st0" cx="11.5" cy="11.5" r="11"/>
<path class="st1" d="M6.2,15c0.1-0.2,0.1-0.5,0-0.7c-1.6-2.9-0.4-6.6,2.5-8.1c3-1.6,6.5-0.4,8.1,2.5c1.6,2.9,0.4,6.6-2.5,8.1
	c-0.5,0.3-1,0.5-1.6,0.6c-0.4,0.1-0.8,0.1-1.2,0.1c-1,0-1.9-0.2-2.8-0.7c-0.2-0.1-0.4-0.1-0.6,0l-2,0.7c-0.2,0.1-0.4,0-0.5-0.2
	c0-0.1,0-0.2,0-0.3L6.2,15z"/>
</svg>
