<?xml version="1.0" encoding="utf-8"?>
<!-- Generator: Adobe Illustrator 25.2.0, SVG Export Plug-In . SVG Version: 6.00 Build 0)  -->
<svg version="1.1" id="Layer_1" xmlns="http://www.w3.org/2000/svg" xmlns:xlink="http://www.w3.org/1999/xlink" x="0px" y="0px"
	 viewBox="0 0 23 23" style="enable-background:new 0 0 23 23;" xml:space="preserve">
<style type="text/css">
	.st0{fill:#E9E1FE;stroke:#FFFFFF;}
	.st1{fill:#5C2EDF;}
</style>
<circle class="st0" cx="11.5" cy="11.5" r="11"/>
<path class="st1" d="M6.8,15.5H5v-3.2C5,12.1,5.1,12,5.3,12h2.1L6.8,15.5z M6.4,8.9c-0.7,0-1.2,0.5-1.2,1.2c0,0.6,0.5,1.2,1.2,1.2
	c0.7,0,1.2-0.5,1.2-1.2C7.6,9.4,7.1,8.9,6.4,8.9z M17.7,12h-2.1l0.5,3.5H18v-3.2C18,12.1,17.9,12,17.7,12z M16.6,11.2
	c0.7,0,1.2-0.5,1.2-1.2c0-0.6-0.5-1.2-1.2-1.2c-0.7,0-1.2,0.5-1.2,1.2C15.4,10.7,15.9,11.2,16.6,11.2z M10.1,9.4v1.5h2.8V9.4
	c0-0.2-0.1-0.3-0.3-0.3h-2.3C10.2,9.1,10.1,9.2,10.1,9.4z M11.5,8.3c0.7,0,1.2-0.5,1.2-1.2c0-0.6-0.5-1.2-1.2-1.2s-1.2,0.5-1.2,1.2
	C10.3,7.8,10.8,8.3,11.5,8.3z M15.5,16.6l-0.7-4.7c0-0.2-0.2-0.3-0.4-0.3H8.6c-0.2,0-0.3,0.1-0.4,0.3l-0.7,4.7
	c0,0.2,0.1,0.4,0.3,0.4c0,0,0,0,0,0h7.3C15.4,17,15.5,16.8,15.5,16.6C15.5,16.6,15.5,16.6,15.5,16.6z"/>
</svg>
