<?xml version="1.0" encoding="utf-8"?>
<!-- Generator: Adobe Illustrator 25.2.0, SVG Export Plug-In . SVG Version: 6.00 Build 0)  -->
<svg version="1.1" id="Layer_1" xmlns="http://www.w3.org/2000/svg" xmlns:xlink="http://www.w3.org/1999/xlink" x="0px" y="0px"
	 viewBox="0 0 23 23" style="enable-background:new 0 0 23 23;" xml:space="preserve">
<style type="text/css">
	.st0{fill:#FEEEED;stroke:#FFFFFF;}
	.st1{fill:#E3392C;}
</style>
<circle class="st0" cx="11.5" cy="11.5" r="11"/>
<path class="st1" d="M14.3,6.8c-0.7,0-1.2,0.2-1.8,0.6c-0.5,0.4-0.8,0.9-1,1.3c-0.2-0.4-0.5-0.9-1-1.3C9.9,7,9.3,6.8,8.7,6.8
	c-1.8,0-3.2,1.5-3.2,3.6c0,2.2,1.7,3.7,4.3,6c0.4,0.4,0.9,0.8,1.5,1.3c0.1,0.1,0.2,0.1,0.2,0.1s0.2,0,0.2-0.1c0.5-0.5,1-0.9,1.5-1.3
	c2.6-2.3,4.3-3.8,4.3-6C17.5,8.3,16.1,6.8,14.3,6.8z"/>
</svg>
