<?xml version="1.0" encoding="utf-8"?>
<!-- Generator: Adobe Illustrator 25.2.0, SVG Export Plug-In . SVG Version: 6.00 Build 0)  -->
<svg version="1.1" id="Layer_1" xmlns="http://www.w3.org/2000/svg" xmlns:xlink="http://www.w3.org/1999/xlink" x="0px" y="0px"
	 viewBox="0 0 23 23" style="enable-background:new 0 0 23 23;" xml:space="preserve">
<style type="text/css">
	.st0{fill:#FFEFDE;}
	.st1{fill:#EBB535;}
</style>
<circle class="st0" cx="11.5" cy="11.5" r="11"/>
<g>
	<path class="st1" d="M16.8,7.3l-1.1-1.1C15.4,6,15,6,14.8,6.2l-0.7,0.7l2,2l0.7-0.7C17,8,17,7.6,16.8,7.3z"/>
	<path class="st1" d="M9,12c0,0-0.1,0.1-0.1,0.2l-0.1,1.8c0,0.1,0,0.1,0.1,0.2C8.9,14.2,9,14.2,9,14.2l1.8-0.1c0.1,0,0.1,0,0.2-0.1
		l0.4-0.4l-2-2L9,12z"/>
	<rect x="10.2" y="8.8" transform="matrix(0.7071 -0.7071 0.7071 0.7071 -3.4978 12.0259)" class="st1" width="5.1" height="2.8"/>
	<path class="st1" d="M15.8,11.2c-0.3,0-0.5,0.2-0.5,0.5v3.4c0,0.5-0.4,0.8-0.8,0.8H7.9c-0.5,0-0.8-0.4-0.8-0.8V8.5
		c0-0.5,0.4-0.8,0.8-0.8h3.4c0.3,0,0.5-0.2,0.5-0.5s-0.2-0.5-0.5-0.5H7.9C6.9,6.7,6,7.5,6,8.6v6.6c0,1,0.8,1.9,1.9,1.9h6.6
		c1,0,1.9-0.8,1.9-1.9v-3.4C16.3,11.4,16.1,11.2,15.8,11.2z"/>
</g>
</svg>
