<?xml version="1.0" encoding="utf-8"?>
<!-- Generator: Adobe Illustrator 25.2.0, SVG Export Plug-In . SVG Version: 6.00 Build 0)  -->
<svg version="1.1" id="Layer_1" xmlns="http://www.w3.org/2000/svg" xmlns:xlink="http://www.w3.org/1999/xlink" x="0px" y="0px"
	 viewBox="0 0 23 23" style="enable-background:new 0 0 23 23;" xml:space="preserve">
<style type="text/css">
	.st0{opacity:0.2;fill:#F02B50;}
	.st1{display:none;}
	.st2{display:inline;fill:#FFA283;}
	.st3{fill:#F02B50;}
</style>
<circle class="st0" cx="11.5" cy="11.5" r="11"/>
<g class="st1">
	<path class="st2" d="M15.7,8.9c0.5,0,1,0.2,1.3,0.6V8.6c0-0.7-0.6-1.3-1.3-1.3H9.9V7c0-0.7-0.6-1.3-1.3-1.3H6.3
		C5.5,5.6,4.9,6.2,4.9,7v2.5c0.3-0.4,0.8-0.6,1.3-0.6H15.7z"/>
	<path class="st2" d="M14.8,13.9c0-0.8,0.6-1.4,1.4-1.4h0.4c0.1,0,0.3,0,0.4,0.1v-1.8c0-0.7-0.6-1.3-1.3-1.3H6.3
		c-0.7,0-1.3,0.6-1.3,1.3v3.9c0,0.7,0.6,1.3,1.3,1.3h8v-0.8c0-0.4,0.2-0.7,0.6-0.8V13.9z"/>
	<path class="st2" d="M17.8,14.8h-0.3v-0.9c0-0.5-0.4-0.9-0.9-0.9h-0.4c-0.5,0-0.9,0.4-0.9,0.9v0.9H15c-0.1,0-0.3,0.1-0.3,0.3v2
		c0,0.1,0.1,0.3,0.3,0.3h2.8c0.1,0,0.3-0.1,0.3-0.3v-2C18.1,15,18,14.8,17.8,14.8z M17,14.8h-1.2v-0.9c0-0.2,0.2-0.4,0.4-0.4h0.4
		c0.2,0,0.4,0.2,0.4,0.4V14.8z"/>
</g>
<g>
	<path class="st3" d="M15,12.9v-2.5c0-2.7-2.2-4.9-4.9-4.9c-2.7,0-4.9,2.2-4.9,4.9c0,0,0,0,0,0v2.5l-1,2c-0.2,0.3,0,0.7,0.3,0.9
		c0.1,0,0.2,0.1,0.3,0.1h3.1c0.4,1.2,1.6,1.8,2.8,1.5c0.7-0.2,1.3-0.8,1.5-1.5h3.1c0.4,0,0.7-0.3,0.7-0.7c0-0.1,0-0.2-0.1-0.3
		L15,12.9z M9.5,15.8h1.3C10.5,16.2,9.9,16.2,9.5,15.8z M11.8,14.5H6l0.6-1.1c0-0.1,0.1-0.2,0.1-0.3v-2.6c0-2,1.6-3.5,3.5-3.5
		s3.5,1.6,3.5,3.5v2.6c0,0.1,0,0.2,0.1,0.3l0.6,1.1L11.8,14.5z"/>
	<path class="st3" d="M15.4,7.6h2.6c0.4,0,0.7-0.3,0.7-0.7c0-0.4-0.3-0.7-0.7-0.7h-2.6c-0.4,0-0.7,0.3-0.7,0.7
		C14.8,7.3,15.1,7.6,15.4,7.6z"/>
	<path class="st3" d="M18.1,9.5h-1.3c-0.4,0-0.7,0.3-0.7,0.7c0,0.4,0.3,0.7,0.7,0.7h1.3c0.4,0,0.7-0.3,0.7-0.7
		C18.7,9.8,18.4,9.5,18.1,9.5z"/>
	<path class="st3" d="M18.1,12.8h-0.7c-0.4,0-0.7,0.3-0.7,0.7s0.3,0.7,0.7,0.7h0.7c0.4,0,0.7-0.3,0.7-0.7S18.4,12.8,18.1,12.8z"/>
</g>
</svg>
