<?xml version="1.0" encoding="utf-8"?>
<!-- Generator: Adobe Illustrator 25.2.0, SVG Export Plug-In . SVG Version: 6.00 Build 0)  -->
<svg version="1.1" id="Layer_1" xmlns="http://www.w3.org/2000/svg" xmlns:xlink="http://www.w3.org/1999/xlink" x="0px" y="0px"
	 viewBox="0 0 23 23" style="enable-background:new 0 0 23 23;" xml:space="preserve">
<style type="text/css">
	.st0{opacity:0.2;fill:#FA9739;}
	.st1{display:none;}
	.st2{display:inline;fill:#FFA283;}
	.st3{fill:#FA9739;}
</style>
<circle class="st0" cx="11.5" cy="11.5" r="11"/>
<g class="st1">
	<path class="st2" d="M15.7,8.9c0.5,0,1,0.2,1.3,0.6V8.6c0-0.7-0.6-1.3-1.3-1.3H9.9V7c0-0.7-0.6-1.3-1.3-1.3H6.3
		C5.5,5.6,4.9,6.2,4.9,7v2.5c0.3-0.4,0.8-0.6,1.3-0.6H15.7z"/>
	<path class="st2" d="M14.8,13.9c0-0.8,0.6-1.4,1.4-1.4h0.4c0.1,0,0.3,0,0.4,0.1v-1.8c0-0.7-0.6-1.3-1.3-1.3H6.3
		c-0.7,0-1.3,0.6-1.3,1.3v3.9c0,0.7,0.6,1.3,1.3,1.3h8v-0.8c0-0.4,0.2-0.7,0.6-0.8V13.9z"/>
	<path class="st2" d="M17.8,14.8h-0.3v-0.9c0-0.5-0.4-0.9-0.9-0.9h-0.4c-0.5,0-0.9,0.4-0.9,0.9v0.9H15c-0.1,0-0.3,0.1-0.3,0.3v2
		c0,0.1,0.1,0.3,0.3,0.3h2.8c0.1,0,0.3-0.1,0.3-0.3v-2C18.1,15,18,14.8,17.8,14.8z M17,14.8h-1.2v-0.9c0-0.2,0.2-0.4,0.4-0.4h0.4
		c0.2,0,0.4,0.2,0.4,0.4V14.8z"/>
</g>
<g>
	<path class="st3" d="M14.6,13.6v0.5H9.4c-0.1,0-0.3,0-0.4,0.1l-1.2,0.9V7.8h6.8v2.2l0.7-0.8V7.7C15.3,7.3,15,7,14.7,7h-7
		C7.4,7,7.1,7.3,7.1,7.7v7.7c0,0.2,0.1,0.4,0.3,0.6c0.1,0,0.2,0.1,0.3,0.1c0.1,0,0.3,0,0.4-0.1l1.3-1h5.3c0.3,0,0.6-0.3,0.6-0.6
		v-1.3l-0.5,0.5C14.8,13.5,14.7,13.5,14.6,13.6z"/>
	<path class="st3" d="M9.2,9.5h4c0.2,0,0.4-0.2,0.4-0.4c0-0.2-0.2-0.4-0.4-0.4h-4C9,8.8,8.8,8.9,8.8,9.1C8.8,9.3,9,9.5,9.2,9.5z"/>
	<path class="st3" d="M13.6,10.9c0-0.2-0.2-0.4-0.4-0.4h-4c-0.2,0-0.4,0.2-0.4,0.4c0,0.2,0.2,0.4,0.4,0.4h4
		C13.4,11.2,13.6,11.1,13.6,10.9z"/>
	<path class="st3" d="M8.8,12.6C8.8,12.8,9,13,9.2,13h3.5l0.1-0.7H9.2C9,12.2,8.8,12.4,8.8,12.6z"/>
	<rect x="13.9" y="10.1" transform="matrix(0.6674 -0.7447 0.7447 0.6674 -2.8336 15.1494)" class="st3" width="3.2" height="1.4"/>
	<path class="st3" d="M17.8,8.9l-0.7-0.6c-0.1-0.1-0.2-0.1-0.3,0l-0.4,0.5l1,0.9l0.4-0.5C17.9,9.1,17.9,9,17.8,8.9z"/>
	<path class="st3" d="M13.5,13.3l0.9-0.3c0,0,0.1,0,0.1-0.1l0.3-0.3l-1-0.9l-0.3,0.3c0,0,0,0.1,0,0.1l-0.1,0.9
		C13.2,13.3,13.3,13.4,13.5,13.3z"/>
</g>
</svg>
