<?xml version="1.0" encoding="utf-8"?>
<!-- Generator: Adobe Illustrator 25.2.0, SVG Export Plug-In . SVG Version: 6.00 Build 0)  -->
<svg version="1.1" id="Layer_1" xmlns="http://www.w3.org/2000/svg" xmlns:xlink="http://www.w3.org/1999/xlink" x="0px" y="0px"
	 viewBox="0 0 23 23" style="enable-background:new 0 0 23 23;" xml:space="preserve">
<style type="text/css">
	.st0{opacity:0.1;fill:#007DFF;}
	.st1{fill:#007DFF;}
</style>
<circle class="st0" cx="11.5" cy="11.5" r="11"/>
<g>
	<polygon class="st1" points="9.7,10.5 8.4,11.8 11.2,14.8 17.4,8.7 16.1,7.4 11.3,12.2 	"/>
	<path class="st1" d="M5.3,12.1c0.1,3.4,2.9,6.1,6.3,6c3.4-0.1,6.1-2.9,6-6.3l-2.1,0c0.1,2.3-1.7,4.2-4,4.2c-2.3,0.1-4.1-1.7-4.2-4
		c0-2.2,1.7-4.1,3.9-4.2l0,1l2.8-2.1l-2.9-2l0,1C7.9,6,5.3,8.8,5.3,12.1z"/>
</g>
</svg>
