<?xml version="1.0" encoding="utf-8"?>
<!-- Generator: Adobe Illustrator 25.2.0, SVG Export Plug-In . SVG Version: 6.00 Build 0)  -->
<svg version="1.1" id="Layer_1" xmlns="http://www.w3.org/2000/svg" xmlns:xlink="http://www.w3.org/1999/xlink" x="0px" y="0px"
	 viewBox="0 0 23 23" style="enable-background:new 0 0 23 23;" xml:space="preserve">
<style type="text/css">
	.st0{opacity:0.1;fill:#E23C2C;}
	.st1{display:none;}
	.st2{display:inline;fill:#FFA283;}
	.st3{fill-rule:evenodd;clip-rule:evenodd;fill:#E23C2C;}
</style>
<circle class="st0" cx="11.5" cy="11.5" r="11"/>
<g class="st1">
	<path class="st2" d="M15.7,8.9c0.5,0,1,0.2,1.3,0.6V8.6c0-0.7-0.6-1.3-1.3-1.3H9.9V7c0-0.7-0.6-1.3-1.3-1.3H6.3
		C5.5,5.6,4.9,6.2,4.9,7v2.5c0.3-0.4,0.8-0.6,1.3-0.6H15.7z"/>
	<path class="st2" d="M14.8,13.9c0-0.8,0.6-1.4,1.4-1.4h0.4c0.1,0,0.3,0,0.4,0.1v-1.8c0-0.7-0.6-1.3-1.3-1.3H6.3
		c-0.7,0-1.3,0.6-1.3,1.3v3.9c0,0.7,0.6,1.3,1.3,1.3h8v-0.8c0-0.4,0.2-0.7,0.6-0.8V13.9z"/>
	<path class="st2" d="M17.8,14.8h-0.3v-0.9c0-0.5-0.4-0.9-0.9-0.9h-0.4c-0.5,0-0.9,0.4-0.9,0.9v0.9H15c-0.1,0-0.3,0.1-0.3,0.3v2
		c0,0.1,0.1,0.3,0.3,0.3h2.8c0.1,0,0.3-0.1,0.3-0.3v-2C18.1,15,18,14.8,17.8,14.8z M17,14.8h-1.2v-0.9c0-0.2,0.2-0.4,0.4-0.4h0.4
		c0.2,0,0.4,0.2,0.4,0.4V14.8z"/>
</g>
<g>
	<path class="st3" d="M11,12.6c-0.1,0-0.3-0.1-0.4-0.2l-2.2-2.1c-0.2-0.2-0.2-0.5,0-0.8c0.2-0.2,0.5-0.2,0.8,0l1.8,1.8l3.9-3.9
		c0.2-0.2,0.5-0.2,0.8,0c0.2,0.2,0.2,0.5,0,0.8l-4.2,4.3C11.3,12.5,11.1,12.6,11,12.6 M10.9,14.2c0,0.3-0.2,0.5-0.5,0.5H8
		c-0.7,0-1.3-0.6-1.3-1.3V8.1c0-0.7,0.6-1.3,1.3-1.3h4.5c0.3,0,0.5,0.2,0.5,0.5s-0.2,0.5-0.5,0.5H8c-0.1,0-0.3,0.1-0.3,0.3v5.4
		c0,0.2,0.2,0.2,0.3,0.2h2.4C10.7,13.6,10.9,13.9,10.9,14.2 M12.5,13.1c0,0,0-0.5,0.5-0.5l2.1,0.5c0,0,0.5,0,0.5,0.5L15,14.3l1.1,1
		c0.2,0.2,0.2,0.5,0,0.8l0,0c-0.2,0.2-0.5,0.2-0.8,0l-1.1-1l-0.7,0.7c0,0-0.4,0-0.5-0.5C12.9,14.6,12.5,13.1,12.5,13.1"/>
</g>
</svg>
