<?xml version="1.0" encoding="utf-8"?>
<!-- Generator: Adobe Illustrator 25.2.0, SVG Export Plug-In . SVG Version: 6.00 Build 0)  -->
<svg version="1.1" id="Layer_1" xmlns="http://www.w3.org/2000/svg" xmlns:xlink="http://www.w3.org/1999/xlink" x="0px" y="0px"
	 viewBox="0 0 23 23" style="enable-background:new 0 0 23 23;" xml:space="preserve">
<style type="text/css">
	.st0{opacity:0.2;fill:#29C6E0;}
	.st1{display:none;}
	.st2{display:inline;fill:#FFA283;}
	.st3{fill:#29C6E0;}
</style>
<circle class="st0" cx="11.5" cy="11.5" r="11"/>
<g class="st1">
	<path class="st2" d="M15.7,8.9c0.5,0,1,0.2,1.3,0.6V8.6c0-0.7-0.6-1.3-1.3-1.3H9.9V7c0-0.7-0.6-1.3-1.3-1.3H6.3
		C5.5,5.6,4.9,6.2,4.9,7v2.5c0.3-0.4,0.8-0.6,1.3-0.6H15.7z"/>
	<path class="st2" d="M14.8,13.9c0-0.8,0.6-1.4,1.4-1.4h0.4c0.1,0,0.3,0,0.4,0.1v-1.8c0-0.7-0.6-1.3-1.3-1.3H6.3
		c-0.7,0-1.3,0.6-1.3,1.3v3.9c0,0.7,0.6,1.3,1.3,1.3h8v-0.8c0-0.4,0.2-0.7,0.6-0.8V13.9z"/>
	<path class="st2" d="M17.8,14.8h-0.3v-0.9c0-0.5-0.4-0.9-0.9-0.9h-0.4c-0.5,0-0.9,0.4-0.9,0.9v0.9H15c-0.1,0-0.3,0.1-0.3,0.3v2
		c0,0.1,0.1,0.3,0.3,0.3h2.8c0.1,0,0.3-0.1,0.3-0.3v-2C18.1,15,18,14.8,17.8,14.8z M17,14.8h-1.2v-0.9c0-0.2,0.2-0.4,0.4-0.4h0.4
		c0.2,0,0.4,0.2,0.4,0.4V14.8z"/>
</g>
<g>
	<path class="st3" d="M11.5,5.6c-3.4,0-6.2,2.4-6.2,5.3c0,1.4,0.6,2.6,1.7,3.6c-0.2,0.6-0.6,1.3-1,1.8c-0.2,0.2-0.2,0.5-0.1,0.8
		c0.1,0.3,0.4,0.4,0.7,0.4c0,0,0,0,0,0c1.7-0.1,2.9-0.8,3.7-1.5c0.4,0.1,0.8,0.1,1.2,0.1c3.4,0,6.2-2.4,6.2-5.3S14.9,5.6,11.5,5.6z
		 M11.5,15.2c-0.4,0-0.8,0-1.3-0.1c-0.1,0-0.3,0-0.4,0.1c-0.6,0.6-1.6,1.3-3.1,1.4c0.5-0.6,0.9-1.5,1.2-2.2c0.1-0.2,0-0.4-0.1-0.5
		c-1-0.8-1.6-2-1.6-3.2c0-2.4,2.4-4.4,5.4-4.4s5.4,2,5.4,4.4S14.5,15.2,11.5,15.2z"/>
	<path class="st3" d="M13.9,9.9h-1c-0.1,0-0.1-0.1-0.1-0.1l0.3-1.1c0.1-0.4-0.2-0.7-0.6-0.7c-0.2,0-0.4,0.1-0.4,0.3v0
		c-0.1,0.3-0.2,0.6-0.3,0.9c0,0,0,0,0,0.1c-0.2,0.4-0.6,0.7-1,0.9v3c0.6,0.2,1.1,0.2,1.7,0.2h1.1c0.4,0,0.7-0.3,0.7-0.6l0.3-1.9
		C14.7,10.3,14.4,9.9,13.9,9.9z"/>
	<path class="st3" d="M9.9,9.8H8.7c-0.1,0-0.2,0.1-0.2,0.2v3.1c0,0.1,0.1,0.2,0.2,0.2h1.2c0.1,0,0.2-0.1,0.2-0.2V10
		C10.1,9.9,10,9.8,9.9,9.8z M9.3,12.9c-0.2,0-0.3-0.1-0.3-0.3c0-0.2,0.1-0.3,0.3-0.3s0.3,0.1,0.3,0.3C9.6,12.8,9.5,12.9,9.3,12.9z"
		/>
</g>
</svg>
