<?xml version="1.0" encoding="utf-8"?>
<!-- Generator: Adobe Illustrator 25.2.0, SVG Export Plug-In . SVG Version: 6.00 Build 0)  -->
<svg version="1.1" id="Layer_1" xmlns="http://www.w3.org/2000/svg" xmlns:xlink="http://www.w3.org/1999/xlink" x="0px" y="0px"
	 viewBox="0 0 23 23" style="enable-background:new 0 0 23 23;" xml:space="preserve">
<style type="text/css">
	.st0{opacity:0.2;fill:#FA6048;}
	.st1{display:none;}
	.st2{display:inline;fill:#FFA283;}
	.st3{fill-rule:evenodd;clip-rule:evenodd;fill:#FA6048;}
</style>
<circle class="st0" cx="11.5" cy="11.5" r="11"/>
<g class="st1">
	<path class="st2" d="M15.7,8.9c0.5,0,1,0.2,1.3,0.6V8.6c0-0.7-0.6-1.3-1.3-1.3H9.9V7c0-0.7-0.6-1.3-1.3-1.3H6.3
		C5.5,5.6,4.9,6.2,4.9,7v2.5c0.3-0.4,0.8-0.6,1.3-0.6H15.7z"/>
	<path class="st2" d="M14.8,13.9c0-0.8,0.6-1.4,1.4-1.4h0.4c0.1,0,0.3,0,0.4,0.1v-1.8c0-0.7-0.6-1.3-1.3-1.3H6.3
		c-0.7,0-1.3,0.6-1.3,1.3v3.9c0,0.7,0.6,1.3,1.3,1.3h8v-0.8c0-0.4,0.2-0.7,0.6-0.8V13.9z"/>
	<path class="st2" d="M17.8,14.8h-0.3v-0.9c0-0.5-0.4-0.9-0.9-0.9h-0.4c-0.5,0-0.9,0.4-0.9,0.9v0.9H15c-0.1,0-0.3,0.1-0.3,0.3v2
		c0,0.1,0.1,0.3,0.3,0.3h2.8c0.1,0,0.3-0.1,0.3-0.3v-2C18.1,15,18,14.8,17.8,14.8z M17,14.8h-1.2v-0.9c0-0.2,0.2-0.4,0.4-0.4h0.4
		c0.2,0,0.4,0.2,0.4,0.4V14.8z"/>
</g>
<g>
	<g>
		<path class="st3" d="M12.4,12.8c0.5-0.7,1.4-1.1,2.3-1.1c1.6,0,3,1.3,3,3c0,1.6-1.3,3-3,3c-1,0-2-0.5-2.5-1.3H5.6
			c-0.2,0-0.3-0.1-0.3-0.3c0-2.6,2.1-3.6,4.8-3.6C10.9,12.5,11.7,12.6,12.4,12.8z M10.1,11.6c-1.5,0-2.4-1.8-2.4-3.3s0.9-3,2.4-3
			s2.4,1.5,2.4,3S11.6,11.6,10.1,11.6z M14.7,16.8c1.2,0,2.1-0.9,2.1-2.1s-0.9-2.1-2.1-2.1s-2.1,0.9-2.1,2.1S13.6,16.8,14.7,16.8z
			 M13.8,14.3h1.8c0.2,0,0.4,0.2,0.4,0.4s-0.2,0.4-0.4,0.4h-1.8c-0.2,0-0.4-0.2-0.4-0.4S13.6,14.3,13.8,14.3z"/>
	</g>
</g>
</svg>
