<?xml version="1.0" encoding="utf-8"?>
<!-- Generator: Adobe Illustrator 25.2.3, SVG Export Plug-In . SVG Version: 6.00 Build 0)  -->
<svg version="1.1" id="Layer_1" xmlns="http://www.w3.org/2000/svg" xmlns:xlink="http://www.w3.org/1999/xlink" x="0px" y="0px"
	 viewBox="0 0 17 18" style="enable-background:new 0 0 17 18;" xml:space="preserve">
<style type="text/css">
	.st0{fill-rule:evenodd;clip-rule:evenodd;}
</style>
<path class="st0" d="M8.5,9.8l-1.6-1v1.4h1.6h1.6V8.8L8.5,9.8z M14.4,1.7h1.3c0.7,0,1.3,0.6,1.3,1.4v13.6c0,0.7-0.6,1.4-1.3,1.4H1.3
	C0.6,18,0,17.4,0,16.6V3.1c0-0.7,0.6-1.4,1.3-1.4h1.3v2c0,0.6,0.4,1,1,1h1.3c0.6,0,1-0.4,1-1v-2h5.2v2c0,0.6,0.4,1,1,1h1.3
	c0.6,0,1-0.4,1-1V1.7z M1,7.5c0-0.2,0.2-0.3,0.3-0.3h14.4c0.2,0,0.3,0.2,0.3,0.3v9.2c0,0.2-0.2,0.3-0.3,0.3H1.3
	C1.1,17,1,16.8,1,16.6V7.5z M3.3,0.7C3.3,0.3,3.6,0,3.9,0h0.7c0.4,0,0.7,0.3,0.7,0.7v2.7c0,0.4-0.3,0.7-0.7,0.7H3.9
	c-0.4,0-0.7-0.3-0.7-0.7V0.7z M11.8,0.7c0-0.4,0.3-0.7,0.7-0.7h0.7c0.4,0,0.7,0.3,0.7,0.7v2.7c0,0.4-0.3,0.7-0.7,0.7h-0.7
	c-0.4,0-0.7-0.3-0.7-0.7V0.7z M4.9,10.5h2.6v1H4.9V10.5z M9.5,10.5h2.6v1H9.5V10.5z M5.2,11.9h2.3v3.1H5.2V11.9z M9.5,11.9h2.3v3.1
	H9.5V11.9z M7.8,10.5h1.3v4.4H7.8V10.5z"/>
</svg>
