<?xml version="1.0" encoding="utf-8"?>
<!-- Generator: Adobe Illustrator 25.2.3, SVG Export Plug-In . SVG Version: 6.00 Build 0)  -->
<svg version="1.1" id="Layer_1" xmlns="http://www.w3.org/2000/svg" xmlns:xlink="http://www.w3.org/1999/xlink" x="0px" y="0px"
	 viewBox="0 0 20 19" style="enable-background:new 0 0 20 19;" xml:space="preserve">
<path class="st0" d="M4.7,0C4.4,0,4.2,0.2,4.2,0.4v3.7c0,0.2,0.2,0.4,0.4,0.4s0.4-0.2,0.4-0.4V0.4C5.1,0.2,4.9,0,4.7,0z M14.4,0
	C14.2,0,14,0.2,14,0.4v3.7c0,0.2,0.2,0.4,0.4,0.4c0.2,0,0.4-0.2,0.4-0.4V0.4C14.8,0.2,14.6,0,14.4,0z M1.7,1.3C0.8,1.3,0,2.1,0,3
	v3.9h19.1V3c0-0.9-0.8-1.7-1.7-1.7h-1.3h-0.8v1.8c0.3,0.2,0.4,0.6,0.4,1c0,0.7-0.6,1.3-1.3,1.3s-1.3-0.6-1.3-1.3
	c0-0.4,0.2-0.7,0.4-1V1.3h-8v1.8c0.3,0.2,0.4,0.6,0.4,1c0,0.7-0.6,1.3-1.3,1.3S3.4,4.8,3.4,4.1c0-0.4,0.2-0.7,0.4-0.9V1.3H1.7z
	 M0,7.8v8.6c0,0.9,0.8,1.7,1.7,1.7h15.7c0.9,0,1.7-0.8,1.7-1.7V7.8H0z"/>
</svg>
