<?xml version="1.0" encoding="utf-8"?>
<!-- Generator: Adobe Illustrator 25.2.3, SVG Export Plug-In . SVG Version: 6.00 Build 0)  -->
<svg version="1.1" id="Layer_1" xmlns="http://www.w3.org/2000/svg" xmlns:xlink="http://www.w3.org/1999/xlink" x="0px" y="0px"
	 viewBox="0 0 28 28" style="enable-background:new 0 0 28 28;" xml:space="preserve">
<style type="text/css">
	.st0{fill:#B2B2B2;}
</style>
<path class="st0" d="M28,22.1c0,0.4-0.1,0.8-0.2,1.4c-0.1,0.6-0.3,1-0.4,1.4c-0.3,0.7-1.1,1.4-2.4,2.1c-1.2,0.7-2.5,1-3.7,1
	c-0.4,0-0.7,0-1-0.1c-0.3,0-0.7-0.1-1.1-0.2c-0.4-0.1-0.7-0.2-0.9-0.3c-0.2-0.1-0.6-0.2-1.1-0.4s-0.9-0.3-1-0.4
	c-1.3-0.5-2.5-1-3.5-1.7c-1.7-1-3.5-2.5-5.3-4.3c-1.8-1.8-3.2-3.6-4.3-5.3c-0.6-1-1.2-2.2-1.6-3.5c0-0.1-0.2-0.4-0.4-1
	c-0.2-0.5-0.3-0.9-0.4-1.1C0.5,9.7,0.4,9.4,0.3,8.9C0.2,8.5,0.1,8.1,0.1,7.8C0,7.4,0,7.1,0,6.7C0,5.5,0.3,4.3,1,3
	c0.7-1.3,1.4-2.1,2.1-2.4c0.3-0.1,0.8-0.3,1.4-0.4C5.1,0.1,5.5,0,5.9,0c0.2,0,0.3,0,0.4,0.1c0.2,0.1,0.6,0.6,1.1,1.5
	C7.5,1.8,7.7,2.2,8,2.6c0.3,0.5,0.5,0.9,0.7,1.3C8.9,4.3,9.1,4.6,9.3,5c0,0.1,0.2,0.2,0.3,0.5C9.8,5.8,9.9,6,10,6.2
	c0.1,0.2,0.1,0.4,0.1,0.6c0,0.3-0.2,0.6-0.6,1C9.2,8.1,8.8,8.5,8.4,8.8C7.9,9.2,7.5,9.5,7.1,9.9c-0.4,0.4-0.6,0.7-0.6,0.9
	c0,0.1,0,0.3,0.1,0.4c0.1,0.2,0.1,0.3,0.2,0.4c0,0.1,0.1,0.3,0.3,0.5c0.1,0.2,0.2,0.4,0.2,0.4c1,1.8,2.2,3.4,3.5,4.7
	c1.3,1.3,2.9,2.5,4.7,3.5c0,0,0.2,0.1,0.4,0.2c0.2,0.1,0.4,0.2,0.5,0.3c0.1,0,0.2,0.1,0.4,0.2c0.2,0.1,0.3,0.1,0.4,0.1
	c0.2,0,0.5-0.2,0.9-0.6c0.4-0.4,0.7-0.8,1.1-1.2c0.3-0.4,0.7-0.9,1.1-1.2c0.4-0.4,0.7-0.6,1-0.6c0.2,0,0.4,0,0.6,0.1
	c0.2,0.1,0.4,0.2,0.7,0.4c0.3,0.2,0.4,0.3,0.5,0.3c0.3,0.2,0.7,0.4,1.1,0.6c0.4,0.2,0.8,0.4,1.3,0.7c0.5,0.3,0.8,0.5,1.1,0.6
	c0.9,0.5,1.4,0.8,1.5,1.1C28,21.8,28,21.9,28,22.1z"/>
</svg>
