<?xml version="1.0" encoding="utf-8"?>
<!-- Generator: Adobe Illustrator 25.2.3, SVG Export Plug-In . SVG Version: 6.00 Build 0)  -->
<svg version="1.1" id="Layer_1" xmlns="http://www.w3.org/2000/svg" xmlns:xlink="http://www.w3.org/1999/xlink" x="0px" y="0px"
	 viewBox="0 0 21 20" style="enable-background:new 0 0 21 20;" xml:space="preserve">
<style type="text/css">
	.st0{fill:#A1A1A1;}
</style>
<path class="st0" d="M13.9,20c-1.6,0-3.1-0.6-4.2-1.7l-7-7C1,9.5,0.5,6.9,1.5,4.7l1-2.3c0.6-1.2,2-1.7,3.2-1.2
	c0.3,0.1,0.5,0.3,0.7,0.5L8,3.3C8.7,4,9,5.1,8.6,6.1L8,7.6C7.8,7.9,7.9,8.2,8.2,8.5l4.4,4.4c0.2,0.2,0.5,0.3,0.8,0.2l1.6-0.6
	c0.9-0.4,2-0.1,2.7,0.6l1.6,1.6c1,0.9,1,2.4,0,3.4c-0.2,0.2-0.4,0.4-0.7,0.5l-2.3,1C15.6,19.8,14.7,20,13.9,20z M3.7,2.9L2.6,5.2
	C1.8,7,2.2,9,3.6,10.4l7,7c1.4,1.3,3.4,1.7,5.2,0.9l2.3-1c0.6-0.3,0.8-0.9,0.6-1.5c-0.1-0.1-0.1-0.3-0.3-0.3l-1.6-1.6
	c-0.4-0.4-0.9-0.4-1.3-0.3l-1.6,0.6c-0.8,0.3-1.6,0.1-2.2-0.4L7.3,9.4C6.7,8.9,6.5,8,6.8,7.3l0.6-1.6c0.2-0.4,0.1-1-0.3-1.3L5.5,2.6
	c-0.4-0.4-1.1-0.4-1.6,0C3.9,2.7,3.8,2.8,3.7,2.9z"/>
</svg>
