<?xml version="1.0" encoding="utf-8"?>
<!-- Generator: Adobe Illustrator 25.2.3, SVG Export Plug-In . SVG Version: 6.00 Build 0)  -->
<svg version="1.1" id="Layer_1" xmlns="http://www.w3.org/2000/svg" xmlns:xlink="http://www.w3.org/1999/xlink" x="0px" y="0px"
	 viewBox="0 0 20 17" style="enable-background:new 0 0 20 17;" xml:space="preserve">
<style type="text/css">
	.st0{fill:#9D9D9D;}
</style>
<path class="st0" d="M0.7,14h3.1c-0.1,0.4-0.1,0.8-0.1,1.2v1.1C3.7,16.7,4,17,4.4,17h11.2c0.4,0,0.7-0.3,0.7-0.7v-1.1
	c0-0.4,0-0.8-0.1-1.2h3.1c0.4,0,0.7-0.3,0.7-0.7v-1.1c0-2.1-1.1-4.1-2.9-5.2c0.6-0.7,0.9-1.7,0.9-2.7c0-2.4-2-4.3-4.4-4.3
	c-1.5,0-2.9,0.8-3.7,2C9.2,0.8,7.8,0,6.3,0C3.9,0,1.9,1.9,1.9,4.3c0,1,0.4,1.9,0.9,2.7C1.1,8.1,0,10.1,0,12.2v1.1
	C0,13.7,0.3,14,0.7,14z M14.9,15.6H5.1v-0.4c0-1.8,1-3.4,2.6-4.3c0.7,0.4,1.5,0.7,2.4,0.7c0.9,0,1.7-0.3,2.4-0.7
	c1.6,0.9,2.6,2.5,2.6,4.3L14.9,15.6z M18.6,12.2v0.4h-2.8c-0.5-1.1-1.3-2-2.3-2.6c0.3-0.4,0.6-0.9,0.7-1.4C14.9,8.5,15.5,8.3,16,8
	C17.6,8.8,18.6,10.4,18.6,12.2z M13.7,1.4c1.6,0,3,1.3,3,2.9c0,1.4-1,2.5-2.3,2.9c-0.1-2-1.5-3.7-3.4-4.1
	C11.5,2.1,12.5,1.4,13.7,1.4z M10,4.4c1.6,0,3,1.3,3,2.9s-1.3,2.9-3,2.9c-1.6,0-3-1.3-3-2.9C7,5.7,8.4,4.4,10,4.4z M6.3,1.4
	c1.2,0,2.2,0.7,2.7,1.7C7.1,3.5,5.7,5.2,5.6,7.2C4.3,6.9,3.3,5.7,3.3,4.3C3.3,2.7,4.7,1.4,6.3,1.4z M1.4,12.2c0-1.8,1-3.4,2.6-4.3
	c0.6,0.4,1.2,0.6,1.9,0.7C6,9.1,6.2,9.6,6.5,10c-1,0.7-1.8,1.6-2.3,2.6H1.4V12.2z"/>
</svg>
