<?xml version="1.0" encoding="utf-8"?>
<!-- Generator: Adobe Illustrator 25.2.3, SVG Export Plug-In . SVG Version: 6.00 Build 0)  -->
<svg version="1.1" id="Layer_1" xmlns="http://www.w3.org/2000/svg" xmlns:xlink="http://www.w3.org/1999/xlink" x="0px" y="0px"
	 viewBox="0 0 20 20" style="enable-background:new 0 0 20 20;" xml:space="preserve">
<style type="text/css">
	.st0{fill:#B2B2B2;}
</style>
<path class="st0" d="M17.5,0h-15C1.1,0,0,1.1,0,2.5v11.3c0,1.4,1.1,2.5,2.5,2.5h3.8v3.3c0,0.3,0.2,0.5,0.5,0.5c0.1,0,0.2,0,0.3-0.1
	l4.9-3.7h5.6c1.4,0,2.5-1.1,2.5-2.5V2.5C20,1.1,18.9,0,17.5,0z M18.1,13.8c0,0.3-0.3,0.6-0.6,0.6h-6.3l-0.5,0.4l-2.6,2v-2.3H2.5
	c-0.3,0-0.6-0.3-0.6-0.6V2.5c0-0.3,0.3-0.6,0.6-0.6h15c0.3,0,0.6,0.3,0.6,0.6V13.8z"/>
</svg>
