<?xml version="1.0" encoding="utf-8"?>
<!-- Generator: Adobe Illustrator 24.3.0, SVG Export Plug-In . SVG Version: 6.00 Build 0)  -->
<svg version="1.1" id="Layer_1" xmlns="http://www.w3.org/2000/svg" xmlns:xlink="http://www.w3.org/1999/xlink" x="0px" y="0px"
	 viewBox="0 0 47 54" style="enable-background:new 0 0 47 54;" xml:space="preserve">
<style type="text/css">
	.st0{fill:#BDDBFF;}
	.st1{fill:#9BC9FF;}
	.st2{fill:#57A4FF;}
	.st3{fill:#2488FF;}
</style>
<path class="st0" d="M46.7,6.7C46.7,3,36.3,0,23.4,0S0,3,0,6.7c0,3.7,10.5,6.8,23.4,6.8C36.3,13.5,46.7,10.5,46.7,6.7z"/>
<path class="st1" d="M23.4,27c12.9,0,23.4-3,23.4-6.8V6.7c0,3.7-10.5,6.8-23.4,6.8C10.5,13.5,0,10.5,0,6.7v13.5
	C0,24,10.5,27,23.4,27z"/>
<path class="st2" d="M23.4,40.5c12.9,0,23.4-3,23.4-6.8V20.2c0,3.7-10.5,6.8-23.4,6.8C10.5,27,0,24,0,20.2v13.5
	C0,37.5,10.5,40.5,23.4,40.5z"/>
<path class="st3" d="M46.7,33.7c0,3.7-10.5,6.8-23.4,6.8c-12.9,0-23.4-3-23.4-6.8v13.5C0,51,10.5,54,23.4,54c12.9,0,23.4-3,23.4-6.8
	L46.7,33.7L46.7,33.7z"/>
</svg>
