<?xml version="1.0" encoding="utf-8"?>
<!-- Generator: Adobe Illustrator 24.3.0, SVG Export Plug-In . SVG Version: 6.00 Build 0)  -->
<svg version="1.1" id="Layer_1" xmlns="http://www.w3.org/2000/svg" xmlns:xlink="http://www.w3.org/1999/xlink" x="0px" y="0px"
	 viewBox="0 0 53 61" style="enable-background:new 0 0 53 61;" xml:space="preserve">
<style type="text/css">
	.st0{fill:#DADEE0;}
	.st1{fill:#1BB7EA;}
	.st2{fill:#F2F2F2;}
	.st3{fill:#1F4254;}
</style>
<path class="st0" d="M52.3,13.1c0-2.5-2.1-4.6-4.6-4.6H13.1c-2.5,0-4.6,2.1-4.6,4.6v43.2c0,2.5,2.1,4.6,4.6,4.6h26.1l13.1-12.4
	L52.3,13.1z"/>
<path class="st1" d="M8.5,13.1c0-2.5,2.1-4.6,4.6-4.6h30.8V4.6c0-2.5-2.1-4.6-4.6-4.6H4.6C2.1,0,0,2.1,0,4.6v43.2
	c0,2.5,2.1,4.6,4.6,4.6h3.8V13.1z"/>
<path class="st2" d="M43.8,48.6h8.5L39.2,61v-7.7C39.2,50.7,41.3,48.6,43.8,48.6z"/>
<path class="st3" d="M20,29h20.8c0.6,0,1.2-0.5,1.2-1.2c0-0.6-0.5-1.2-1.2-1.2H20c-0.6,0-1.2,0.5-1.2,1.2C18.8,28.4,19.4,29,20,29z"
	/>
<path class="st3" d="M20,21.2h20.8c0.6,0,1.2-0.5,1.2-1.2c0-0.6-0.5-1.2-1.2-1.2H20c-0.6,0-1.2,0.5-1.2,1.2
	C18.8,20.7,19.4,21.2,20,21.2z"/>
<path class="st3" d="M20,36.7h20.8c0.6,0,1.2-0.5,1.2-1.2c0-0.6-0.5-1.2-1.2-1.2H20c-0.6,0-1.2,0.5-1.2,1.2
	C18.8,36.2,19.4,36.7,20,36.7z"/>
<path class="st3" d="M20,44.4h11.5c0.6,0,1.2-0.5,1.2-1.2c0-0.6-0.5-1.2-1.2-1.2H20c-0.6,0-1.2,0.5-1.2,1.2
	C18.8,43.9,19.4,44.4,20,44.4z"/>
</svg>
