<?xml version="1.0" encoding="utf-8"?>
<!-- Generator: Adobe Illustrator 25.2.3, SVG Export Plug-In . SVG Version: 6.00 Build 0)  -->
<svg version="1.1" id="Layer_1" xmlns="http://www.w3.org/2000/svg" xmlns:xlink="http://www.w3.org/1999/xlink" x="0px" y="0px"
	 viewBox="0 0 16 16" style="enable-background:new 0 0 16 16;" xml:space="preserve">
<style type="text/css">
	.st0{fill:#B2B2B2;}
</style>
<path class="st0" d="M15.6,2.8H0.4C0.2,2.8,0,2.6,0,2.4S0.2,2,0.4,2H4c0-1.1,0.9-2,2-2h4c1.1,0,2,0.9,2,2h3.6C15.8,2,16,2.2,16,2.4
	S15.8,2.8,15.6,2.8z M10,0.8H6C5.3,0.8,4.8,1.3,4.8,2h6.4C11.2,1.3,10.7,0.8,10,0.8z M4.8,11.6v-4c0-0.2,0.2-0.4,0.4-0.4
	c0.2,0,0.4,0.2,0.4,0.4v4c0,0.2-0.2,0.4-0.4,0.4C5,12,4.8,11.8,4.8,11.6z M7.6,12.8V6.4C7.6,6.2,7.8,6,8,6s0.4,0.2,0.4,0.4v6.4
	c0,0.2-0.2,0.4-0.4,0.4S7.6,13,7.6,12.8z M10.4,11.6v-4c0-0.2,0.2-0.4,0.4-0.4s0.4,0.2,0.4,0.4v4c0,0.2-0.2,0.4-0.4,0.4
	S10.4,11.8,10.4,11.6z M2.8,13.6c0,0.9,0.7,1.6,1.6,1.6h7.2c0.9,0,1.6-0.7,1.6-1.6V4H14v9.6c0,1.3-1.1,2.4-2.4,2.4H4.4
	C3.1,16,2,14.9,2,13.6V4h0.8V13.6z"/>
</svg>
