<?xml version="1.0" encoding="utf-8"?>
<!-- Generator: Adobe Illustrator 25.2.3, SVG Export Plug-In . SVG Version: 6.00 Build 0)  -->
<svg version="1.1" id="Layer_1" xmlns="http://www.w3.org/2000/svg" xmlns:xlink="http://www.w3.org/1999/xlink" x="0px" y="0px"
	 viewBox="0 0 18 19" style="enable-background:new 0 0 18 19;" xml:space="preserve">
<style type="text/css">
	.st0{fill:#9D9D9D;}
</style>
<path class="st0" d="M15.3,19H2.7C1.2,19,0,17.8,0,16.3V2.7C0,1.2,1.2,0,2.7,0h12.5C16.8,0,18,1.2,18,2.7v13.5
	C18,17.8,16.8,19,15.3,19z M2.7,1.7c-0.6,0-1.1,0.5-1.1,1.1v13.5c0,0.7,0.5,1.2,1.1,1.2h12.5c0.6,0,1.1-0.5,1.1-1.1V2.7
	c0.1-0.6-0.4-1.1-1-1.1H2.7z"/>
<path class="st0" d="M14.3,14.1c-1.2-3-4.7-4.4-7.6-3.1c-1.4,0.6-2.5,1.7-3,3.1c-0.2,0.4,0,0.9,0.5,1.1c0.4,0.2,0.9,0,1.1-0.5
	c0.9-2.1,3.3-3.1,5.4-2.2c1,0.4,1.8,1.2,2.2,2.2c0.2,0.3,0.4,0.5,0.7,0.5c0.1,0,0.2,0,0.3-0.1C14.3,15,14.5,14.5,14.3,14.1z M9,9.7
	c1.6,0,3-1.4,2.9-3.1c-0.1-1.7-1.4-3.1-3-3C7.3,3.7,6,5.1,6,6.8C6,8.4,7.4,9.8,9,9.7z M9,5.4c0.7,0,1.4,0.7,1.3,1.4
	c0,0.7-0.7,1.4-1.4,1.3c-0.7,0-1.3-0.7-1.3-1.4S8.3,5.4,9,5.4z"/>
</svg>
