<?xml version="1.0" encoding="utf-8"?>
<!-- Generator: Adobe Illustrator 25.2.3, SVG Export Plug-In . SVG Version: 6.00 Build 0)  -->
<svg version="1.1" id="Layer_1" xmlns="http://www.w3.org/2000/svg" xmlns:xlink="http://www.w3.org/1999/xlink" x="0px" y="0px"
	 viewBox="0 0 15 18" style="enable-background:new 0 0 15 18;" xml:space="preserve">
<style type="text/css">
	.st0{fill:#B2B2B2;}
</style>
<g>
	<g>
		<path class="st0" d="M14,4.2l-4-4C9.9,0.1,9.7,0,9.6,0H1.4C0.6,0,0,0.6,0,1.4V16c0,0.8,0.6,1.4,1.4,1.4h11.4
			c0.8,0,1.4-0.6,1.4-1.4V4.5C14.1,4.4,14.1,4.3,14,4.2z M9.9,13.5H4.3c-0.5,0-0.8-0.4-0.8-0.9s0.4-0.8,0.8-0.8h5.6
			c0.5,0,0.9,0.4,0.9,0.8C10.7,13.1,10.3,13.5,9.9,13.5z M10.7,9.3c0,0.5-0.4,0.9-0.8,0.9H4.3c-0.5,0-0.8-0.4-0.8-0.9
			s0.4-0.9,0.8-0.9h5.6C10.3,8.4,10.7,8.8,10.7,9.3z M9.1,5V1.7L12.4,5H9.1z"/>
	</g>
</g>
</svg>
