<?xml version="1.0" encoding="utf-8"?>
<!-- Generator: Adobe Illustrator 25.2.3, SVG Export Plug-In . SVG Version: 6.00 Build 0)  -->
<svg version="1.1" id="Layer_1" xmlns="http://www.w3.org/2000/svg" xmlns:xlink="http://www.w3.org/1999/xlink" x="0px" y="0px"
	 viewBox="0 0 18 15" style="enable-background:new 0 0 18 15;" xml:space="preserve">
<style type="text/css">
	.st0{fill:#9D9D9D;}
</style>
<path class="st0" d="M5.1,2.5H0.6C0.3,2.5,0,2.2,0,1.9s0.3-0.6,0.6-0.6h4.5c-0.4,0-0.6,0.3-0.6,0.6S4.8,2.5,5.1,2.5z"/>
<path class="st0" d="M18,1.9c0,0.4-0.3,0.6-0.6,0.6H5.1c0.4,0,0.6-0.3,0.6-0.6S5.5,1.2,5.1,1.2h12.2C17.7,1.2,18,1.5,18,1.9z"/>
<path class="st0" d="M12.9,8.1H0.6C0.3,8.1,0,7.9,0,7.5s0.3-0.6,0.6-0.6h12.2c-0.4,0-0.6,0.3-0.6,0.6C12.2,7.8,12.5,8.1,12.9,8.1z"
	/>
<path class="st0" d="M18,7.5c0,0.4-0.3,0.6-0.6,0.6h-4.5c0.4,0,0.6-0.3,0.6-0.6s-0.3-0.6-0.6-0.6h4.5C17.7,6.9,18,7.1,18,7.5z"/>
<path class="st0" d="M5.1,13.7H0.6c-0.4,0-0.6-0.3-0.6-0.6s0.3-0.6,0.6-0.6h4.5c-0.4,0-0.6,0.3-0.6,0.6S4.8,13.7,5.1,13.7z"/>
<path class="st0" d="M18,13.1c0,0.4-0.3,0.6-0.6,0.6H5.1c0.4,0,0.6-0.3,0.6-0.6s-0.3-0.6-0.6-0.6h12.2C17.7,12.5,18,12.7,18,13.1z"
	/>
<path class="st0" d="M6.2,12.5c-0.3-0.6-1.1-0.8-1.7-0.4c-0.6,0.4-0.8,1.1-0.4,1.7c0.4,0.6,1.2,0.8,1.7,0.4c0.4-0.3,0.6-0.6,0.6-1.1
	C6.4,12.9,6.4,12.7,6.2,12.5z M4.5,13.1c0-0.4,0.3-0.6,0.6-0.6c0.4,0,0.6,0.3,0.6,0.6s-0.3,0.6-0.6,0.6C4.8,13.7,4.5,13.4,4.5,13.1z
	"/>
<path class="st0" d="M6.9,12.5c-0.4-1-1.5-1.5-2.4-1.1c-0.5,0.2-1,0.6-1.2,1.1c-0.1,0.4-0.1,0.9,0,1.3c0.4,1,1.5,1.5,2.4,1.1
	c0.5-0.2,1-0.6,1.2-1.1C7.1,13.3,7.1,12.9,6.9,12.5z M5.8,13.1c0,0.4-0.3,0.6-0.6,0.6c-0.4,0-0.6-0.3-0.6-0.6s0.3-0.6,0.6-0.6
	C5.5,12.5,5.8,12.7,5.8,13.1z"/>
<path class="st0" d="M13.9,6.9c-0.4-0.6-1.2-0.8-1.7-0.4c-0.6,0.4-0.8,1.1-0.4,1.7c0.4,0.6,1.2,0.8,1.7,0.4c0.4-0.3,0.6-0.6,0.6-1.1
	C14.1,7.2,14.1,7.1,13.9,6.9z M12.2,7.5c0-0.4,0.3-0.6,0.6-0.6c0.4,0,0.6,0.3,0.6,0.6s-0.3,0.6-0.6,0.6C12.5,8.1,12.2,7.8,12.2,7.5z
	"/>
<path class="st0" d="M14.7,6.9c-0.4-1-1.5-1.5-2.4-1.1c-0.5,0.2-1,0.6-1.2,1.1c-0.1,0.4-0.1,0.9,0,1.3c0.4,1,1.5,1.5,2.4,1.1
	c0.5-0.2,1-0.6,1.2-1.1C14.9,7.7,14.9,7.2,14.7,6.9z M13.5,7.5c0,0.4-0.3,0.6-0.6,0.6c-0.4,0-0.6-0.3-0.6-0.6s0.3-0.6,0.6-0.6
	C13.2,6.9,13.5,7.1,13.5,7.5z"/>
<path class="st0" d="M6.2,1.2C5.9,0.6,5.1,0.4,4.5,0.8C3.9,1.2,3.7,1.9,4.1,2.5c0.4,0.6,1.1,0.8,1.7,0.4c0.4-0.3,0.6-0.6,0.6-1.1
	C6.4,1.6,6.4,1.4,6.2,1.2z M4.5,1.9c0-0.4,0.3-0.6,0.6-0.6c0.4,0,0.6,0.3,0.6,0.6S5.5,2.5,5.1,2.5C4.8,2.5,4.5,2.2,4.5,1.9z"/>
<path class="st0" d="M6.9,1.2c-0.3-1-1.5-1.5-2.4-1.1c-0.6,0.2-1,0.6-1.2,1.1c-0.1,0.4-0.1,0.9,0,1.3c0.3,0.9,1.5,1.4,2.4,1.1
	c0.5-0.2,1-0.6,1.2-1.1C7.1,2.1,7.1,1.6,6.9,1.2z M5.8,1.9c0,0.4-0.3,0.6-0.6,0.6c-0.4,0-0.6-0.3-0.6-0.6s0.3-0.6,0.6-0.6
	C5.5,1.2,5.8,1.5,5.8,1.9z"/>
</svg>
