<?xml version="1.0" encoding="utf-8"?>
<!-- Generator: Adobe Illustrator 24.3.0, SVG Export Plug-In . SVG Version: 6.00 Build 0)  -->
<svg version="1.1" id="Layer_1" xmlns="http://www.w3.org/2000/svg" xmlns:xlink="http://www.w3.org/1999/xlink" x="0px" y="0px"
	 viewBox="0 0 51 43" style="enable-background:new 0 0 51 43;" xml:space="preserve">
<style type="text/css">
	.st0{fill:#F6C358;}
	.st1{fill:#FCD462;}
</style>
<path class="st0" d="M22.1,3.9V2c0-1.1-0.9-2-2-2H2C0.9,0,0,0.9,0,2v12h50.2V7.3c0-1.1-0.9-2-2-2H23.4C22.7,5.3,22.1,4.6,22.1,3.9z"
	/>
<path class="st1" d="M47.5,43H2.7C1.2,43,0,41.8,0,40.3V13.6h22.1c0.6,0,1.1-0.2,1.5-0.7l2.5-2.7c0.4-0.4,0.9-0.7,1.5-0.7h22.6v30.8
	C50.2,41.8,49,43,47.5,43z"/>
</svg>
