<?xml version="1.0" encoding="utf-8"?>
<!-- Generator: Adobe Illustrator 24.3.0, SVG Export Plug-In . SVG Version: 6.00 Build 0)  -->
<svg version="1.1" id="Layer_1" xmlns="http://www.w3.org/2000/svg" xmlns:xlink="http://www.w3.org/1999/xlink" x="0px" y="0px"
	 viewBox="0 0 55 47" style="enable-background:new 0 0 55 47;" xml:space="preserve">
<style type="text/css">
	.st0{fill:#59C36A;}
	.st1{fill:#FFDA2D;}
	.st2{fill:#FDBF00;}
	.st3{fill:#4086F4;}
	.st4{fill:#4175DF;}
</style>
<g>
	<g id="Drive_4_">
		<path class="st0" d="M27.8,15.3L17.5,33.1h0l5.9,7.3l-13.3,5.6c-0.3-0.1-0.5-0.3-0.6-0.6L3.3,33.8c-0.3-0.6-0.1-1.1,0-1.4l16.8-29
			c0.1-0.2,0.3-0.3,0.5-0.5h0l8.6,2.7L27.8,15.3z"/>
	</g>
	<path class="st1" d="M52.6,33.1L41,40.3l-2.8-7.3L27.8,15.3L20.6,2.9c0.2-0.1,0.5-0.2,0.7-0.2h13c0.3,0.1,0.9,0.1,1.2,0.7l16.8,29
		C52.5,32.6,52.6,32.8,52.6,33.1L52.6,33.1z"/>
	<path class="st2" d="M35.6,3.4c-0.4-0.7-1-0.6-1.2-0.7h-6.6v12.6l10.4,17.8l2.8,7.3l11.6-7.3c0-0.3-0.1-0.5-0.2-0.7L35.6,3.4z"/>
	<path class="st3" d="M52.6,33.1c0,0.3-0.1,0.5-0.1,0.7l-6.3,11.6c-0.2,0.4-0.8,0.8-1.3,0.8H10.8c-0.2,0-0.5-0.1-0.7-0.2l7.4-12.9
		H52.6z"/>
	<path class="st4" d="M27.8,46.1h17.1c0.5,0,1-0.4,1.3-0.8l6.3-11.6c0.1-0.2,0.1-0.4,0.1-0.7H27.8L27.8,46.1L27.8,46.1z"/>
</g>
</svg>
