<?xml version="1.0" encoding="utf-8"?>
<!-- Generator: Adobe Illustrator 25.2.3, SVG Export Plug-In . SVG Version: 6.00 Build 0)  -->
<svg version="1.1" id="Layer_1" xmlns="http://www.w3.org/2000/svg" xmlns:xlink="http://www.w3.org/1999/xlink" x="0px" y="0px"
	 viewBox="0 0 20 17" style="enable-background:new 0 0 20 17;" xml:space="preserve">
<style type="text/css">
	.st0{fill:#9D9D9D;}
</style>
<path class="st0" d="M19.8,6.7l-9.5-6.6C10.1,0,9.9,0,9.7,0.1L0.2,6.7C0,6.9-0.1,7.2,0.1,7.4c0.2,0.2,0.5,0.3,0.7,0.1L10,1.1
	l9.2,6.4c0.1,0.1,0.2,0.1,0.3,0.1c0.2,0,0.3-0.1,0.4-0.2C20.1,7.2,20,6.9,19.8,6.7z"/>
<path class="st0" d="M17.3,7.6c-0.3,0-0.5,0.2-0.5,0.5V16h-4.2v-4.3c0-1.4-1.2-2.5-2.6-2.5c-1.4,0-2.6,1.1-2.6,2.5V16H3.2V8.1
	c0-0.3-0.2-0.5-0.5-0.5S2.2,7.8,2.2,8.1v8.4c0,0.3,0.2,0.5,0.5,0.5h5.2c0.3,0,0.5-0.2,0.5-0.5c0,0,0,0,0,0v-4.8
	c0-0.8,0.7-1.5,1.6-1.5c0.9,0,1.6,0.7,1.6,1.5v4.8c0,0,0,0,0,0c0,0.3,0.2,0.5,0.5,0.5h5.2c0.3,0,0.5-0.2,0.5-0.5V8.1
	C17.8,7.8,17.6,7.6,17.3,7.6z"/>
</svg>
