<?xml version="1.0" encoding="utf-8"?>
<!-- Generator: Adobe Illustrator 24.3.0, SVG Export Plug-In . SVG Version: 6.00 Build 0)  -->
<svg version="1.1" id="Layer_1" xmlns="http://www.w3.org/2000/svg" xmlns:xlink="http://www.w3.org/1999/xlink" x="0px" y="0px"
	 viewBox="0 0 57 53" style="enable-background:new 0 0 57 53;" xml:space="preserve">
<style type="text/css">
	.st0{fill:#ECEFF1;}
	.st1{fill:#FFC107;}
	.st2{fill:#388E3C;}
	.st3{fill:#4CAF50;}
</style>
<path class="st0" d="M14.8,41.4c-3.8,0-7.2-2.4-8.4-6l-0.1-0.3c-0.3-1-0.4-1.8-0.4-2.6V16.4L0.2,35.5C-0.6,38.3,1.1,41.3,4,42
	l36.7,9.8c0.5,0.1,0.9,0.2,1.4,0.2c2.4,0,4.5-1.6,5.1-3.9l2.1-6.8L14.8,41.4L14.8,41.4z"/>
<path class="st0" d="M57,5.3v27.2c0,2.9-2.4,5.3-5.3,5.3H14.8c-0.2,0-0.5,0-0.7,0c-2.5-0.3-4.4-2.3-4.6-4.8c0-0.1,0-0.3,0-0.4V5.3
	c0-2.9,2.4-5.3,5.3-5.3h36.8C54.6,0,57,2.4,57,5.3z"/>
<path class="st1" d="M26.1,11.8c0,2.6-2.1,4.7-4.8,4.7c-2.6,0-4.8-2.1-4.8-4.7c0-2.6,2.1-4.7,4.8-4.7C24,7.1,26.1,9.2,26.1,11.8z"/>
<path class="st2" d="M57,25.9v6.6c0,2.9-2.4,5.3-5.3,5.3H14.8c-0.2,0-0.5,0-0.7,0l24.5-24.3c1.6-1.6,4.3-1.6,5.9,0L57,25.9z"/>
<path class="st3" d="M42.9,37.8h-28c-0.2,0-0.5,0-0.7,0c-2.5-0.3-4.4-2.3-4.6-4.8l11.3-11.2c1.6-1.6,4.3-1.6,5.9,0L42.9,37.8z"/>
</svg>
