<?xml version="1.0" encoding="utf-8"?>
<!-- Generator: Adobe Illustrator 25.2.3, SVG Export Plug-In . SVG Version: 6.00 Build 0)  -->
<svg version="1.1" id="Layer_1" xmlns="http://www.w3.org/2000/svg" xmlns:xlink="http://www.w3.org/1999/xlink" x="0px" y="0px"
	 viewBox="0 0 34 34" style="enable-background:new 0 0 34 34;" xml:space="preserve">
<style type="text/css">
	.st0{fill:#E34474;}
</style>
<path class="st0" d="M20.3,17c0,1.8-1.5,3.3-3.3,3.3s-3.3-1.5-3.3-3.3s1.5-3.3,3.3-3.3S20.3,15.2,20.3,17z"/>
<path class="st0" d="M24.6,11.2c-0.2-0.4-0.4-0.8-0.7-1.1c-0.3-0.3-0.7-0.6-1.1-0.7c-0.3-0.1-0.9-0.3-1.8-0.3C19.9,9,19.6,9,17,9
	c-2.6,0-2.9,0-3.9,0.1c-0.9,0-1.5,0.2-1.8,0.3c-0.4,0.2-0.8,0.4-1.1,0.7c-0.3,0.3-0.6,0.7-0.7,1.1c-0.1,0.3-0.3,0.9-0.3,1.8
	C9,14.1,9,14.4,9,17c0,2.6,0,2.9,0.1,3.9c0,0.9,0.2,1.5,0.3,1.8c0.2,0.4,0.4,0.8,0.7,1.1c0.3,0.3,0.7,0.6,1.1,0.7
	c0.3,0.1,0.9,0.3,1.8,0.3c1,0,1.3,0.1,3.9,0.1s2.9,0,3.9-0.1c0.9,0,1.5-0.2,1.8-0.3c0.9-0.3,1.5-1,1.9-1.9c0.1-0.3,0.3-0.9,0.3-1.8
	c0-1,0.1-1.3,0.1-3.9c0-2.6,0-2.9-0.1-3.9C24.9,12.1,24.7,11.6,24.6,11.2z M17,22c-2.8,0-5-2.2-5-5c0-2.8,2.2-5,5-5c2.8,0,5,2.2,5,5
	C22,19.8,19.8,22,17,22z M22.2,13c-0.6,0-1.2-0.5-1.2-1.2c0-0.6,0.5-1.2,1.2-1.2c0.6,0,1.2,0.5,1.2,1.2C23.4,12.4,22.9,13,22.2,13z"
	/>
<path class="st0" d="M17,0C7.6,0,0,7.6,0,17c0,9.4,7.6,17,17,17c9.4,0,17-7.6,17-17C34,7.6,26.4,0,17,0z M26.7,21
	c0,1-0.2,1.7-0.5,2.4c-0.5,1.3-1.5,2.4-2.9,2.9c-0.6,0.2-1.3,0.4-2.4,0.5c-1,0-1.4,0.1-4,0.1s-3,0-4-0.1c-1,0-1.7-0.2-2.4-0.5
	C10,26,9.4,25.6,8.9,25.1C8.4,24.6,8,24,7.7,23.4c-0.2-0.6-0.4-1.3-0.5-2.4c0-1-0.1-1.4-0.1-4s0-3,0.1-4c0-1,0.2-1.7,0.5-2.4
	C8,10,8.4,9.4,8.9,8.9C9.4,8.4,10,8,10.6,7.7c0.6-0.2,1.3-0.4,2.4-0.5c1,0,1.4-0.1,4-0.1s3,0,4,0.1c1,0,1.7,0.2,2.4,0.5
	C24,8,24.6,8.4,25.1,8.9c0.5,0.5,0.9,1.1,1.1,1.7c0.2,0.6,0.4,1.3,0.5,2.4c0,1,0.1,1.4,0.1,4S26.7,20,26.7,21z"/>
</svg>
