<?xml version="1.0" encoding="utf-8"?>
<!-- Generator: Adobe Illustrator 24.3.0, SVG Export Plug-In . SVG Version: 6.00 Build 0)  -->
<svg version="1.1" id="Layer_1" xmlns="http://www.w3.org/2000/svg" xmlns:xlink="http://www.w3.org/1999/xlink" x="0px" y="0px"
	 viewBox="0 0 49 49" style="enable-background:new 0 0 49 49;" xml:space="preserve">
<style type="text/css">
	.st0{fill:#BDC3C7;}
	.st1{fill:#0577EA;}
	.st2{fill:#FFFFFF;}
	.st3{fill:#ECF0F1;}
</style>
<path class="st0" d="M38.9,10.1H28.7V0L38.9,10.1z"/>
<path class="st1" d="M3.4,38.9H49V18.6H3.4V38.9z"/>
<path class="st2" d="M19.4,36.3c-2.3,0-4.2-1.9-4.2-4.2c0-0.5,0.4-0.8,0.8-0.8c0.5,0,0.8,0.4,0.8,0.8c0,1.4,1.1,2.5,2.5,2.5
	c1.4,0,2.5-1.1,2.5-2.5c0-1.4-1.1-2.5-2.5-2.5c-2.3,0-4.2-1.9-4.2-4.2s1.9-4.2,4.2-4.2s4.2,1.9,4.2,4.2c0,0.5-0.4,0.8-0.8,0.8
	c-0.5,0-0.8-0.4-0.8-0.8c0-1.4-1.1-2.5-2.5-2.5c-1.4,0-2.5,1.1-2.5,2.5c0,1.4,1.1,2.5,2.5,2.5c2.3,0,4.2,1.9,4.2,4.2
	S21.8,36.3,19.4,36.3z"/>
<path class="st3" d="M3.4,38.9V18.6h35.5v-8.5H28.7V0H0v49h38.9V38.9H3.4z"/>
<path class="st2" d="M9.3,36.3c-1.9,0-3.4-1.5-3.4-3.4c0-0.5,0.4-0.8,0.8-0.8c0.5,0,0.8,0.4,0.8,0.8c0,0.9,0.8,1.7,1.7,1.7
	c0.9,0,1.7-0.8,1.7-1.7V22.8c0-0.5,0.4-0.8,0.8-0.8c0.5,0,0.8,0.4,0.8,0.8v10.1C12.7,34.8,11.2,36.3,9.3,36.3z"/>
<path class="st2" d="M29.6,22.8c-0.9,0-1.7,0.8-1.7,1.7V33c0,0.9,0.8,1.7,1.7,1.7h0.8c0.9,0,1.7-0.8,1.7-1.7v-8.5
	c0-0.9-0.8-1.7-1.7-1.7H29.6z M30.4,36.3h-0.8c-1.9,0-3.4-1.5-3.4-3.4v-8.5c0-1.9,1.5-3.4,3.4-3.4h0.8c1.9,0,3.4,1.5,3.4,3.4V33
	C33.8,34.8,32.3,36.3,30.4,36.3z"/>
<path class="st2" d="M45.6,36.3c-0.3,0-0.6-0.1-0.7-0.4l-6.9-11v10.6c0,0.5-0.4,0.8-0.8,0.8s-0.8-0.4-0.8-0.8V22
	c0-0.4,0.2-0.7,0.6-0.8c0.4-0.1,0.7,0,0.9,0.4l6.9,11V22c0-0.5,0.4-0.8,0.8-0.8c0.5,0,0.8,0.4,0.8,0.8v13.5c0,0.4-0.2,0.7-0.6,0.8
	C45.8,36.3,45.7,36.3,45.6,36.3z"/>
</svg>
