<?xml version="1.0" encoding="utf-8"?>
<!-- Generator: Adobe Illustrator 25.2.3, SVG Export Plug-In . SVG Version: 6.00 Build 0)  -->
<svg version="1.1" id="Layer_1" xmlns="http://www.w3.org/2000/svg" xmlns:xlink="http://www.w3.org/1999/xlink" x="0px" y="0px"
	 viewBox="0 0 34 34" style="enable-background:new 0 0 34 34;" xml:space="preserve">
<style type="text/css">
	.st0{fill:#007AB9;}
	.st1{fill:#F1F2F2;}
</style>
<path class="st0" d="M17,34c9.4,0,17-7.6,17-17c0-9.4-7.6-17-17-17C7.6,0,0,7.6,0,17C0,26.4,7.6,34,17,34z"/>
<path class="st1" d="M27.2,18.4v7h-4.1v-6.5c0-1.6-0.6-2.8-2.1-2.8c-1.1,0-1.8,0.8-2.1,1.5c-0.1,0.3-0.1,0.6-0.1,1v6.8h-4.1
	c0,0,0.1-11.1,0-12.2h4.1v1.7l0,0h0v0c0.5-0.8,1.5-2,3.7-2C25.2,12.9,27.2,14.6,27.2,18.4z M10.5,7.3c-1.4,0-2.3,0.9-2.3,2.1
	c0,1.2,0.9,2.1,2.2,2.1h0c1.4,0,2.3-0.9,2.3-2.1C12.8,8.2,11.9,7.3,10.5,7.3z M8.5,25.4h4.1V13.2H8.5V25.4z"/>
</svg>
