<?xml version="1.0" encoding="utf-8"?>
<!-- Generator: Adobe Illustrator 25.2.3, SVG Export Plug-In . SVG Version: 6.00 Build 0)  -->
<svg version="1.1" id="Layer_1" xmlns="http://www.w3.org/2000/svg" xmlns:xlink="http://www.w3.org/1999/xlink" x="0px" y="0px"
	 viewBox="0 0 18 18" style="enable-background:new 0 0 18 18;" xml:space="preserve">
<path class="st0" d="M7.1,7.5c0-0.2,0.2-0.4,0.4-0.4s0.4,0.2,0.4,0.4v0.4h2.3V7.5c0-0.2,0.1-0.4,0.4-0.4s0.4,0.2,0.4,0.4v0.4h1.5
	V5.6c0-0.6-0.5-1.1-1.1-1.1h-1.1c-0.1,0-0.2,0-0.3,0.1L9,5.5L8.1,4.6C8.1,4.5,8,4.5,7.9,4.5H6.8C6.2,4.5,5.6,5,5.6,5.6v2.3h1.5V7.5z
	"/>
<path class="st0" d="M1.5,17.6c0,0.2,0.2,0.4,0.4,0.4h14.3c0.2,0,0.4-0.1,0.4-0.4v-6h-15V17.6z"/>
<path class="st0" d="M17.6,8.6H0.4C0.2,8.6,0,8.8,0,9v1.5c0,0.2,0.2,0.4,0.4,0.4h17.3c0.2,0,0.4-0.1,0.4-0.4V9
	C18,8.8,17.8,8.6,17.6,8.6z"/>
<path class="st0" d="M9,3.8c1.1,0,1.9-0.9,1.9-1.9c0-1-0.8-1.9-1.9-1.9S7.1,0.8,7.1,1.9S7.9,3.8,9,3.8z"/>
</svg>
