<?xml version="1.0" encoding="utf-8"?>
<!-- Generator: Adobe Illustrator 25.2.3, SVG Export Plug-In . SVG Version: 6.00 Build 0)  -->
<svg version="1.1" id="Layer_1" xmlns="http://www.w3.org/2000/svg" xmlns:xlink="http://www.w3.org/1999/xlink" x="0px" y="0px"
	 viewBox="0 0 16 22" style="enable-background:new 0 0 16 22;" xml:space="preserve">
<style type="text/css">
	.st0{fill:#A1A1A1;}
</style>
<path class="st0" d="M8,22c-0.2,0-0.4-0.1-0.6-0.3C7.1,21.3,0,12.3,0,8.1C0,3.6,3.6,0,8,0c4.4,0,8,3.6,8,8.1
	c0,4.3-7.1,13.3-7.4,13.6C8.4,21.9,8.2,22,8,22z M8,1.5c-3.6,0-6.5,2.9-6.5,6.6c0,2.9,4.3,9.1,6.5,12c2.3-2.9,6.5-9.2,6.5-12
	C14.5,4.4,11.6,1.5,8,1.5z"/>
<path class="st0" d="M8,11.7c-2,0-3.6-1.6-3.6-3.7S6,4.4,8,4.4c2,0,3.6,1.6,3.6,3.7S10,11.7,8,11.7z M8,5.9c-1.2,0-2.2,1-2.2,2.2
	s0.9,2.2,2.2,2.2s2.2-1,2.2-2.2S9.2,5.9,8,5.9z"/>
</svg>
