<?xml version="1.0" encoding="utf-8"?>
<!-- Generator: Adobe Illustrator 25.2.3, SVG Export Plug-In . SVG Version: 6.00 Build 0)  -->
<svg version="1.1" id="Layer_1" xmlns="http://www.w3.org/2000/svg" xmlns:xlink="http://www.w3.org/1999/xlink" x="0px" y="0px"
	 viewBox="0 0 18 18" style="enable-background:new 0 0 18 18;" xml:space="preserve">
<path class="st0" d="M18,13v0.3c0,1.2-1,2.1-2.1,2.1h-1.3v-0.2c0-0.1,0-0.3,0-0.4c0-2.3-1.3-4.2-3.2-5.4c1.5-0.1,2.8-0.7,3.7-1.8
	c1.7,1.1,2.9,2.9,2.9,5C18,12.7,18,12.9,18,13z M11.7,8.5C11.9,8,12,7.5,12,6.9c0-2.6-1.9-4.7-4.3-5.1C8.4,0.7,9.7,0,11.1,0
	c2.4,0,4.3,1.9,4.3,4.3C15.4,6.5,13.8,8.2,11.7,8.5z M11.1,6.9c0,2.4-1.9,4.3-4.3,4.3S2.6,9.2,2.6,6.9c0-2.4,1.9-4.3,4.3-4.3
	S11.1,4.5,11.1,6.9z M6.9,12c1.6,0,3-0.7,3.9-1.8c1.7,1.1,2.9,2.9,2.9,5c0,0.1,0,0.2,0,0.3v0.3c0,1.2-1,2.1-2.1,2.1H2.1
	C1,18,0,17,0,15.9v-0.3v-0.3h0c0-2,1.2-3.9,2.9-5C3.9,11.3,5.3,12,6.9,12z"/>
</svg>
