<?xml version="1.0" encoding="utf-8"?>
<!-- Generator: Adobe Illustrator 25.2.3, SVG Export Plug-In . SVG Version: 6.00 Build 0)  -->
<svg version="1.1" id="Layer_1" xmlns="http://www.w3.org/2000/svg" xmlns:xlink="http://www.w3.org/1999/xlink" x="0px" y="0px"
	 viewBox="0 0 20 20" style="enable-background:new 0 0 20 20;" xml:space="preserve">
<style type="text/css">
	.st0{fill:#9D9D9D;}
	.st1{fill:#DB1F26;stroke:#FFFFFF;}
</style>
<path class="st0" d="M12.9,17.1c-0.1,1.6-1.6,2.9-3.3,2.9c-1.8,0-3.2-1.3-3.3-2.9H2.2C1,17.1,0,16.2,0,15S1,13,2.2,13V8.9
	c0-2.9,2-5.4,4.8-6.4V2.4C7,1.1,8.2,0,9.6,0s2.6,1.1,2.6,2.4v0.1C15,3.5,17,6,17,8.9V13c1.2,0,2.2,0.9,2.2,2.1s-1,2.1-2.2,2.1H12.9z
	 M11.5,17.1H7.8c0.1,0.9,0.9,1.5,1.8,1.5S11.3,17.9,11.5,17.1z M8,3.6C5.5,4.3,3.7,6.4,3.7,8.9V13c0,0.8-0.7,1.4-1.5,1.4
	c-0.4,0-0.7,0.3-0.7,0.7c0,0.4,0.3,0.7,0.7,0.7H17c0.4,0,0.7-0.3,0.7-0.7c0-0.4-0.3-0.7-0.7-0.7c-0.8,0-1.5-0.6-1.5-1.4V8.9
	c0-2.5-1.8-4.6-4.3-5.3l-0.5-0.1V2.4c0-0.6-0.5-1-1.1-1c-0.6,0-1.1,0.4-1.1,1v1.1L8,3.6z"/>
<path class="st1" d="M19.5,6.5c0,2.1-1.8,3.9-4.1,3.9c-2.3,0-4.1-1.8-4.1-3.9s1.8-3.9,4.1-3.9C17.7,2.7,19.5,4.4,19.5,6.5z"/>
</svg>
