<?xml version="1.0" encoding="utf-8"?>
<!-- Generator: Adobe Illustrator 24.3.0, SVG Export Plug-In . SVG Version: 6.00 Build 0)  -->
<svg version="1.1" id="Layer_1" xmlns="http://www.w3.org/2000/svg" xmlns:xlink="http://www.w3.org/1999/xlink" x="0px" y="0px"
	 viewBox="0 0 59 55" style="enable-background:new 0 0 59 55;" xml:space="preserve">
<style type="text/css">
	.st0{clip-path:url(#SVGID_2_);}
	.st1{fill:#CA64EA;}
	.st2{fill:#AE4BD5;}
	.st3{fill:#9332BF;}
	.st4{fill:#7719AA;}
	.st5{opacity:0.2;enable-background:new    ;}
	.st6{opacity:0.5;enable-background:new    ;}
	.st7{fill:url(#SVGID_3_);}
	.st8{fill:#FFFFFF;}
</style>
<g>
	<defs>
		<rect id="SVGID_1_" y="0" width="59" height="55"/>
	</defs>
	<clipPath id="SVGID_2_">
		<use xlink:href="#SVGID_1_"  style="overflow:visible;"/>
	</clipPath>
	<g class="st0">
		<path class="st1" d="M45.3,55h-29c-1.4,0-2.5-1.1-2.5-2.5v-50c0-1.4,1.1-2.5,2.5-2.5h40.3C57.9,0,59,1.1,59,2.5v11.2L45.3,55z"/>
		<path class="st2" d="M59,27.5l-6.9,4.1l-6.9-4.1V13.7H59L59,27.5z"/>
		<path class="st3" d="M59,41.3l-6.9,4.1l-6.9-4.1V27.5H59V41.3z"/>
		<path class="st4" d="M45.3,41.3H59v11.2c0,1.4-1.2,2.6-2.6,2.6H45.3V41.3z"/>
		<path class="st5" d="M30.4,10.9H13.7v34.4h16.7c1.4,0,2.5-1.1,2.5-2.5V13.4C32.9,12,31.8,10.9,30.4,10.9z"/>
		<path class="st5" d="M29,12.4H13.7v34.4H29c1.4,0,2.5-1.1,2.5-2.5V14.9C31.6,13.5,30.4,12.4,29,12.4z"/>
		<path class="st6" d="M29,12.4H13.7V44H29c1.4,0,2.5-1.1,2.5-2.5V14.9C31.6,13.5,30.4,12.4,29,12.4z"/>
		<path class="st6" d="M27.7,12.4h-14V44h14c1.4,0,2.5-1.1,2.5-2.5V14.9C30.2,13.5,29.1,12.4,27.7,12.4z"/>
		
			<linearGradient id="SVGID_3_" gradientUnits="userSpaceOnUse" x1="5.2126" y1="45.4658" x2="24.9731" y2="11.3138" gradientTransform="matrix(1 0 0 -1 0 55.8898)">
			<stop  offset="0" style="stop-color:#8324B3"/>
			<stop  offset="0.5" style="stop-color:#7A1BAC"/>
			<stop  offset="1" style="stop-color:#621197"/>
		</linearGradient>
		<path class="st7" d="M2.5,12.4h25.2c1.4,0,2.5,1.1,2.5,2.5v25.2c0,1.4-1.1,2.5-2.5,2.5H2.5c-1.4,0-2.5-1.1-2.5-2.5V14.9
			C0,13.5,1.1,12.4,2.5,12.4z"/>
		<path class="st8" d="M8.3,19.3h3.4l6.7,10.9c0.3,0.5,0.5,0.9,0.7,1.2h0C19,30.6,19,29.9,19,29.1v-9.8h2.9v16.4h-3.2l-7-11.2
			c-0.2-0.4-0.4-0.8-0.6-1.2h-0.1c0.1,0.8,0.1,1.6,0.1,2.4v9.9H8.3V19.3z"/>
	</g>
</g>
</svg>
