<?xml version="1.0" encoding="utf-8"?>
<!-- Generator: Adobe Illustrator 24.3.0, SVG Export Plug-In . SVG Version: 6.00 Build 0)  -->
<svg version="1.1" id="Layer_1" xmlns="http://www.w3.org/2000/svg" xmlns:xlink="http://www.w3.org/1999/xlink" x="0px" y="0px"
	 viewBox="0 0 66 41" style="enable-background:new 0 0 66 41;" xml:space="preserve">
<style type="text/css">
	.st0{fill:#0364B8;}
	.st1{fill:#0078D4;}
	.st2{fill:#1490DF;}
	.st3{fill:#28A8EA;}
</style>
<path class="st0" d="M39.7,27.7L52.9,15C50.1,4.3,39.2-2.1,28.5,0.6c-4.8,1.2-9,4.2-11.7,8.4C17,9,39.7,27.7,39.7,27.7z"/>
<path class="st1" d="M25.4,11.4C22.9,9.8,20,9,17,9c-0.1,0-0.1,0-0.2,0C8,9.1,0.9,16.4,1,25.2c0,3.2,1,6.3,2.9,8.9l19.8-2.5
	l15.2-12.2L25.4,11.4z"/>
<path class="st2" d="M52.9,15c-0.3,0-0.6,0-0.9,0c-1.8,0-3.5,0.4-5.2,1.1l-8,3.4l8.8,10.9l15.8,3.8c3.4-6.3,1-14.2-5.3-17.6
	C56.5,15.7,54.7,15.2,52.9,15z"/>
<path class="st3" d="M3.9,34.1c3,4.3,7.9,6.9,13.1,6.9h35c4.8,0,9.2-2.6,11.4-6.8L38.8,19.4L3.9,34.1z"/>
</svg>
