<?xml version="1.0" encoding="utf-8"?>
<!-- Generator: Adobe Illustrator 25.1.0, SVG Export Plug-In . SVG Version: 6.00 Build 0)  -->
<svg version="1.1" id="Layer_1" xmlns="http://www.w3.org/2000/svg" xmlns:xlink="http://www.w3.org/1999/xlink" x="0px" y="0px"
	 viewBox="0 0 49 56" style="enable-background:new 0 0 49 56;" xml:space="preserve">
<style type="text/css">
	.st0{fill:#E2E5E7;}
	.st1{fill:#B0B7BD;}
	.st2{fill:#CAD1D8;}
	.st3{fill:#F15642;}
	.st4{fill:#FFFFFF;}
</style>
<path class="st0" d="M10.5,0C8.6,0,7,1.6,7,3.5v49c0,1.9,1.6,3.5,3.5,3.5h35c1.9,0,3.5-1.6,3.5-3.5V14L35,0H10.5z"/>
<path class="st1" d="M38.5,14H49L35,0v10.5C35,12.4,36.6,14,38.5,14z"/>
<path class="st2" d="M49,24.5L38.5,14H49V24.5z"/>
<path class="st3" d="M42,45.5c0,1-0.8,1.8-1.8,1.8H1.8c-1,0-1.8-0.8-1.8-1.8V28c0-1,0.8-1.8,1.8-1.8h38.5c1,0,1.8,0.8,1.8,1.8V45.5z
	"/>
<path class="st4" d="M7.6,33.2c0-0.5,0.4-1,1-1h3.2c1.8,0,3.5,1.2,3.5,3.6c0,2.2-1.6,3.4-3.5,3.4H9.5V41c0,0.6-0.4,1-0.9,1
	c-0.5,0-1-0.3-1-1V33.2z M9.5,34v3.5h2.3c0.9,0,1.7-0.8,1.7-1.7c0-1-0.7-1.8-1.7-1.8H9.5z"/>
<path class="st4" d="M18,42c-0.5,0-1-0.3-1-0.9v-8c0-0.5,0.5-0.9,1-0.9h3.2c6.4,0,6.3,9.7,0.1,9.7H18z M18.9,34v6.3h2.3
	c3.8,0,3.9-6.3,0-6.3H18.9z"/>
<path class="st4" d="M29.7,34.1v2.2h3.6c0.5,0,1,0.5,1,1c0,0.5-0.5,0.8-1,0.8h-3.6v2.9c0,0.5-0.4,0.9-0.8,0.9c-0.6,0-1-0.4-1-0.9v-8
	c0-0.5,0.4-0.9,1-0.9h4.9c0.6,0,1,0.4,1,0.9c0,0.4-0.4,1-1,1H29.7z"/>
<path class="st2" d="M40.3,47.3H7V49h33.3c1,0,1.8-0.8,1.8-1.8v-1.8C42,46.5,41.2,47.3,40.3,47.3z"/>
</svg>
