<?xml version="1.0" encoding="utf-8"?>
<!-- Generator: Adobe Illustrator 25.2.3, SVG Export Plug-In . SVG Version: 6.00 Build 0)  -->
<svg version="1.1" id="Layer_1" xmlns="http://www.w3.org/2000/svg" xmlns:xlink="http://www.w3.org/1999/xlink" x="0px" y="0px"
	 viewBox="0 0 42 41" style="enable-background:new 0 0 42 41;" xml:space="preserve">
<style type="text/css">
	.st0{fill:#B2B2B2;}
</style>
<path class="st0" d="M21,0C9.4,0,0,9.2,0,20.5C0,31.8,9.4,41,21,41c11.6,0,21-9.2,21-20.5C42,9.2,32.6,0,21,0z M21,38.8
	c-10.4,0-18.8-8.2-18.8-18.3S10.6,2.2,21,2.2s18.8,8.2,18.8,18.3S31.4,38.8,21,38.8z"/>
<path class="st0" d="M29.1,18l-11-6.1c-0.8-0.5-1.8-0.5-2.5-0.1c-0.7,0.4-1.1,1.2-1.1,2.2v13.2c0,1,0.4,1.8,1.1,2.2
	c0.3,0.2,0.7,0.3,1.1,0.3c0.5,0,1-0.1,1.4-0.4l11-6.2c1.1-0.6,1.7-1.5,1.7-2.5C30.8,19.5,30.2,18.6,29.1,18z M28,21.1l-11,6.2
	c-0.1,0-0.2,0.1-0.2,0.1c0,0,0-0.1,0-0.2V13.9c0-0.1,0-0.2,0-0.2c0,0,0.1,0,0.2,0.1l11,6.1c0.4,0.2,0.6,0.5,0.6,0.6
	C28.6,20.6,28.4,20.9,28,21.1z"/>
</svg>
