<?xml version="1.0" encoding="utf-8"?>
<!-- Generator: Adobe Illustrator 25.2.3, SVG Export Plug-In . SVG Version: 6.00 Build 0)  -->
<svg version="1.1" id="Layer_1" xmlns="http://www.w3.org/2000/svg" xmlns:xlink="http://www.w3.org/1999/xlink" x="0px" y="0px"
	 viewBox="0 0 15 15" style="enable-background:new 0 0 15 15;" xml:space="preserve">
<path class="st0" d="M14.3,0H0.8C0.3,0,0,0.3,0,0.8v13.5C0,14.7,0.3,15,0.8,15h13.5c0.4,0,0.8-0.3,0.8-0.8V0.8C15,0.3,14.7,0,14.3,0
	z M4.5,12.8c0,0.4-0.3,0.8-0.8,0.8H2.3c-0.5,0-0.8-0.3-0.8-0.8v-9C1.5,3.3,1.8,3,2.3,3h1.5c0.4,0,0.8,0.3,0.8,0.8V12.8z M9,12.8
	c0,0.4-0.3,0.8-0.8,0.8H6.8c-0.4,0-0.8-0.3-0.8-0.8v-6C6,6.3,6.3,6,6.8,6h1.5C8.7,6,9,6.3,9,6.8V12.8z M13.5,12.8
	c0,0.4-0.3,0.8-0.8,0.8h-1.5c-0.4,0-0.8-0.3-0.8-0.8v-3c0-0.4,0.3-0.8,0.8-0.8h1.5c0.4,0,0.8,0.3,0.8,0.8V12.8z"/>
</svg>
