<?xml version="1.0" encoding="utf-8"?>
<!-- Generator: Adobe Illustrator 24.3.0, SVG Export Plug-In . SVG Version: 6.00 Build 0)  -->
<svg version="1.1" id="Layer_1" xmlns="http://www.w3.org/2000/svg" xmlns:xlink="http://www.w3.org/1999/xlink" x="0px" y="0px"
	 viewBox="0 0 52 59" style="enable-background:new 0 0 52 59;" xml:space="preserve">
<style type="text/css">
	.st0{fill:#E2E5E7;}
	.st1{fill:#B0B7BD;}
	.st2{fill:#CAD1D8;}
	.st3{fill:#F15642;}
	.st4{fill:#FFFFFF;}
</style>
<path class="st0" d="M11.1,0c-2,0-3.7,1.7-3.7,3.7v51.6c0,2,1.7,3.7,3.7,3.7h37.1c2,0,3.7-1.7,3.7-3.7V14.7L37.1,0H11.1z"/>
<path class="st1" d="M40.9,14.7H52L37.1,0v11.1C37.1,13.1,38.8,14.7,40.9,14.7z"/>
<path class="st2" d="M52,25.8L40.9,14.7H52V25.8z"/>
<path class="st3" d="M44.6,47.9c0,1-0.8,1.8-1.9,1.8H1.9c-1,0-1.9-0.8-1.9-1.8V29.5c0-1,0.8-1.8,1.9-1.8h40.9c1,0,1.9,0.8,1.9,1.8
	V47.9z"/>
<path class="st4" d="M8.5,34.9c0-0.5,0.4-1,1-1H13c1.9,0,3.7,1.3,3.7,3.7c0,2.3-1.7,3.6-3.7,3.6h-2.5v1.9c0,0.6-0.4,1-1,1
	c-0.5,0-1-0.4-1-1L8.5,34.9z M10.5,35.8v3.7H13c1,0,1.8-0.9,1.8-1.8c0-1-0.8-1.9-1.8-1.9H10.5z"/>
<path class="st4" d="M18.5,34.9c0-0.5,0.4-1,1-1H23c1.9,0,3.7,1.3,3.7,3.7c0,2.3-1.7,3.6-3.7,3.6h-2.5v1.9c0,0.6-0.4,1-1,1
	c-0.5,0-1-0.4-1-1V34.9z M20.5,35.8v3.7H23c1,0,1.8-0.9,1.8-1.8c0-1-0.8-1.9-1.8-1.9H20.5z"/>
<path class="st4" d="M31.3,35.9h-2.6c-1.3,0-1.3-1.9,0-1.9h7c1.3,0,1.3,1.9,0,1.9h-2.5v7.4c0,1.3-2,1.3-2,0V35.9z"/>
<path class="st2" d="M42.7,49.8H7.4v1.8h35.3c1,0,1.9-0.8,1.9-1.8v-1.8C44.6,49,43.7,49.8,42.7,49.8z"/>
</svg>
