<?xml version="1.0" encoding="utf-8"?>
<!-- Generator: Adobe Illustrator 25.2.3, SVG Export Plug-In . SVG Version: 6.00 Build 0)  -->
<svg version="1.1" id="Layer_1" xmlns="http://www.w3.org/2000/svg" xmlns:xlink="http://www.w3.org/1999/xlink" x="0px" y="0px"
	 viewBox="0 0 20 20" style="enable-background:new 0 0 20 20;" xml:space="preserve">
<style type="text/css">
	.st0{fill-rule:evenodd;clip-rule:evenodd;fill:#9D9D9D;}
</style>
<g>
	<g>
		<path class="st0" d="M14.6,13.2l5.1,5.1c0.4,0.4,0.4,1,0,1.4c-0.4,0.4-1,0.4-1.4,0l-5.1-5.1C10,17,5.3,16.8,2.3,13.9
			c-3.2-3.2-3.2-8.4,0-11.5c3.2-3.2,8.4-3.2,11.5,0C16.8,5.3,17.1,10,14.6,13.2z M12.4,12.4c2.3-2.3,2.3-6.2,0-8.7
			c-2.3-2.4-6.2-2.3-8.7,0s-2.3,6.2,0,8.7S10.1,14.9,12.4,12.4z"/>
	</g>
</g>
</svg>
