<?xml version="1.0" encoding="utf-8"?>
<!-- Generator: Adobe Illustrator 25.2.3, SVG Export Plug-In . SVG Version: 6.00 Build 0)  -->
<svg version="1.1" id="Layer_1" xmlns="http://www.w3.org/2000/svg" xmlns:xlink="http://www.w3.org/1999/xlink" x="0px" y="0px"
	 viewBox="0 0 17 17" style="enable-background:new 0 0 17 17;" xml:space="preserve">
<style type="text/css">
	.st0{fill:#B2B2B2;}
</style>
<g>
	<g>
		<path class="st0" d="M16.2,6.7h-0.9c-0.3,0-0.6-0.2-0.8-0.5c0-0.1-0.1-0.2-0.1-0.3c-0.1-0.3-0.1-0.7,0.2-0.9l0.6-0.6
			c0.3-0.3,0.3-0.8,0-1.1l-1.4-1.4c-0.3-0.3-0.8-0.3-1.1,0L12,2.4c-0.2,0.2-0.6,0.3-0.9,0.2c-0.1,0-0.2-0.1-0.3-0.1
			c-0.3-0.1-0.5-0.4-0.5-0.8V0.8C10.3,0.4,9.9,0,9.5,0h-2C7.1,0,6.7,0.4,6.7,0.8v0.9c0,0.3-0.2,0.6-0.5,0.8C6.1,2.5,6,2.5,5.9,2.6
			C5.6,2.7,5.2,2.7,5,2.4L4.3,1.8C4,1.5,3.5,1.5,3.2,1.8L1.8,3.2C1.4,3.5,1.4,4,1.8,4.3L2.4,5c0.2,0.2,0.3,0.6,0.2,0.9
			C2.5,6,2.5,6.1,2.5,6.2C2.3,6.5,2,6.7,1.7,6.7H0.8C0.4,6.7,0,7.1,0,7.5v2c0,0.4,0.4,0.8,0.8,0.8h0.9c0.3,0,0.6,0.2,0.8,0.5
			c0,0.1,0.1,0.2,0.1,0.3c0.1,0.3,0.1,0.7-0.2,0.9l-0.6,0.6c-0.3,0.3-0.3,0.8,0,1.1l1.4,1.4c0.3,0.3,0.8,0.3,1.1,0l0.6-0.6
			c0.2-0.2,0.6-0.3,0.9-0.2c0.1,0.1,0.3,0.1,0.4,0.2c0.3,0.1,0.5,0.4,0.5,0.8v0.8c0,0.4,0.4,0.8,0.8,0.8h2c0.4,0,0.8-0.4,0.8-0.8
			v-0.9c0-0.3,0.2-0.6,0.5-0.8c0.1-0.1,0.3-0.1,0.4-0.2c0.3-0.1,0.7-0.1,0.9,0.2l0.6,0.6c0.3,0.3,0.8,0.3,1.1,0l1.4-1.4
			c0.3-0.3,0.3-0.8,0-1.1L14.6,12c-0.2-0.2-0.3-0.6-0.2-0.9c0.1-0.1,0.1-0.2,0.1-0.3c0.1-0.3,0.4-0.5,0.8-0.5h0.9
			c0.4,0,0.8-0.4,0.8-0.8v-2C17,7.1,16.6,6.7,16.2,6.7z M8.5,11.6c-1.7,0-3.1-1.4-3.1-3.1c0-1.7,1.4-3.1,3.1-3.1
			c1.7,0,3.1,1.4,3.1,3.1C11.6,10.2,10.2,11.6,8.5,11.6z"/>
	</g>
</g>
</svg>
