<?xml version="1.0" encoding="utf-8"?>
<!-- Generator: Adobe Illustrator 25.2.3, SVG Export Plug-In . SVG Version: 6.00 Build 0)  -->
<svg version="1.1" id="Layer_1" xmlns="http://www.w3.org/2000/svg" xmlns:xlink="http://www.w3.org/1999/xlink" x="0px" y="0px"
	 viewBox="0 0 20 20" style="enable-background:new 0 0 20 20;" xml:space="preserve">
<path class="st0" d="M19,7.9l-1.3-0.4l-0.5-1.3l0.7-1.2c0.3-0.5,0.2-1.2-0.2-1.6l-1.1-1.1c-0.4-0.4-1.1-0.5-1.6-0.2l-1.2,0.7
	l-1.3-0.5L12.1,1c-0.2-0.6-0.7-1-1.3-1H9.3C8.7,0,8.1,0.4,8,1L7.6,2.3L6.3,2.8L5.1,2.2C4.6,1.9,3.9,2,3.5,2.4L2.4,3.5
	C2,3.9,1.9,4.6,2.2,5.1l0.7,1.2L2.3,7.6L1,7.9C0.4,8.1,0,8.6,0,9.2v1.5c0,0.6,0.4,1.1,1,1.3l1.3,0.4l0.5,1.3l-0.7,1.2
	c-0.3,0.5-0.2,1.2,0.2,1.6l1.1,1.1c0.4,0.4,1.1,0.5,1.6,0.2l1.2-0.7l1.3,0.5L7.9,19c0.2,0.6,0.7,1,1.3,1h1.5c0.6,0,1.1-0.4,1.3-1
	l0.4-1.3l1.3-0.5l1.2,0.7c0.5,0.3,1.2,0.2,1.6-0.2l1.1-1.1c0.4-0.4,0.5-1.1,0.2-1.6l-0.7-1.2l0.5-1.3l1.3-0.4c0.6-0.2,1-0.7,1-1.3
	V9.2C20,8.6,19.6,8.1,19,7.9z M18.9,10.8c0,0.1-0.1,0.2-0.1,0.2l-1.8,0.5l-1,2.4l0.9,1.6c0,0.1,0,0.2,0,0.3l-1.1,1.1
	c-0.1,0.1-0.2,0.1-0.3,0L13.8,16l-2.4,1L11,18.7c0,0.1-0.1,0.1-0.2,0.1H9.2c-0.1,0-0.2-0.1-0.2-0.1l-0.5-1.8l-2.4-1l-1.6,0.9
	c-0.1,0-0.2,0-0.3,0l-1.1-1.1c-0.1-0.1-0.1-0.2,0-0.3l0.9-1.6l-1-2.4L1.3,11c-0.1,0-0.1-0.1-0.1-0.2V9.2c0-0.1,0.1-0.2,0.1-0.2
	l1.8-0.5l1-2.4L3.1,4.5c0-0.1,0-0.2,0-0.3l1.1-1.1c0.1-0.1,0.2-0.1,0.3,0l1.6,0.9l2.4-1L9,1.3c0-0.1,0.1-0.1,0.2-0.1h1.5
	c0.1,0,0.2,0.1,0.2,0.1l0.5,1.8l2.4,1l1.6-0.9c0.1,0,0.2,0,0.3,0l1.1,1.1c0.1,0.1,0.1,0.2,0,0.3L16,6.2l0.9,2.3L18.7,9
	c0.1,0,0.1,0.1,0.1,0.2V10.8z"/>
<path class="st0" d="M10,6.2c-2.1,0-3.8,1.7-3.8,3.8c0,2.1,1.7,3.8,3.8,3.8c2.1,0,3.8-1.7,3.8-3.8C13.8,7.9,12.1,6.2,10,6.2z
	 M10,12.7c-1.5,0-2.7-1.2-2.7-2.7c0-1.5,1.2-2.7,2.7-2.7c1.5,0,2.7,1.2,2.7,2.7C12.7,11.5,11.5,12.7,10,12.7z"/>
</svg>
