<?xml version="1.0" encoding="utf-8"?>
<!-- Generator: Adobe Illustrator 25.2.3, SVG Export Plug-In . SVG Version: 6.00 Build 0)  -->
<svg version="1.1" id="Layer_1" xmlns="http://www.w3.org/2000/svg" xmlns:xlink="http://www.w3.org/1999/xlink" x="0px" y="0px"
	 viewBox="0 0 20 18" style="enable-background:new 0 0 20 18;" xml:space="preserve">
<style type="text/css">
	.st0{fill:#B2B2B2;}
</style>
<path class="st0" d="M19.7,6.2l-5,4.8c-0.5,0.5-1.4,0.1-1.4-0.6V7.9c-5,0-7.1,1.2-5.7,6c0.2,0.5-0.4,0.9-0.9,0.6c-1.4-1-2.6-3-2.6-5
	c0-5.1,4.1-6.1,9.2-6.1V0.8c0-0.7,0.9-1.1,1.4-0.6l5,4.8C20.1,5.3,20.1,5.9,19.7,6.2z M13.3,13.3v2.4H2.2V4.5H4c0.1,0,0.2,0,0.3-0.1
	c0.5-0.5,1.1-1,1.8-1.3c0.4-0.2,0.2-0.8-0.2-0.8H1.7C0.7,2.3,0,3,0,3.9v12.4C0,17.2,0.7,18,1.7,18h12.2c0.9,0,1.7-0.8,1.7-1.7v-3.1
	c0-0.3-0.3-0.5-0.6-0.4c-0.4,0.1-0.8,0.2-1.2,0.1C13.6,12.9,13.3,13.1,13.3,13.3z"/>
</svg>
