<?xml version="1.0" encoding="utf-8"?>
<!-- Generator: Adobe Illustrator 25.2.3, SVG Export Plug-In . SVG Version: 6.00 Build 0)  -->
<svg version="1.1" id="Layer_1" xmlns="http://www.w3.org/2000/svg" xmlns:xlink="http://www.w3.org/1999/xlink" x="0px" y="0px"
	 viewBox="0 0 18 18" style="enable-background:new 0 0 18 18;" xml:space="preserve">
<style type="text/css">
	.st0{fill:#AEAEAE;}
</style>
<path class="st0" d="M15.4,2.6C13.7,0.9,11.4,0,9,0C6.6,0,4.3,0.9,2.6,2.6C0.9,4.3,0,6.6,0,9c0,2.4,0.9,4.7,2.6,6.4
	C4.3,17.1,6.6,18,9,18c2.4,0,4.7-0.9,6.4-2.6c1.7-1.7,2.6-4,2.6-6.4C18,6.6,17.1,4.3,15.4,2.6z M9,16.9c-4.4,0-7.9-3.6-7.9-7.9
	c0-4.4,3.6-7.9,7.9-7.9c4.4,0,7.9,3.6,7.9,7.9C16.9,13.4,13.4,16.9,9,16.9z"/>
<path class="st0" d="M7.1,6.6c-0.9-0.9-2.3-0.9-3.2,0c-0.2,0.2-0.2,0.5,0,0.8c0.2,0.2,0.5,0.2,0.8,0c0.5-0.5,1.2-0.5,1.7,0
	c0.1,0.1,0.2,0.2,0.4,0.2c0.1,0,0.3-0.1,0.4-0.2C7.3,7.2,7.3,6.8,7.1,6.6z"/>
<path class="st0" d="M14.1,6.6c-0.9-0.9-2.3-0.9-3.2,0c-0.2,0.2-0.2,0.5,0,0.8c0.2,0.2,0.5,0.2,0.8,0c0.5-0.5,1.2-0.5,1.7,0
	c0.1,0.1,0.2,0.2,0.4,0.2c0.1,0,0.3-0.1,0.4-0.2C14.3,7.2,14.3,6.8,14.1,6.6z"/>
<path class="st0" d="M13.7,9.4H4.2C4,9.4,3.7,9.6,3.7,9.9c0,2.9,2.4,5.3,5.3,5.3c2.9,0,5.3-2.4,5.3-5.3C14.3,9.6,14,9.4,13.7,9.4z
	 M9,14.1c-2.1,0-3.9-1.6-4.2-3.7h8.4C12.9,12.5,11.1,14.1,9,14.1z"/>
</svg>
