<?xml version="1.0" encoding="utf-8"?>
<!-- Generator: Adobe Illustrator 25.2.3, SVG Export Plug-In . SVG Version: 6.00 Build 0)  -->
<svg version="1.1" id="Layer_1" xmlns="http://www.w3.org/2000/svg" xmlns:xlink="http://www.w3.org/1999/xlink" x="0px" y="0px"
	 viewBox="0 0 19 19" style="enable-background:new 0 0 19 19;" xml:space="preserve">
<path class="st0" d="M16.7,16.9c1-1.1,1.7-2.7,1.7-4.3c0-1.7-0.7-3.3-1.8-4.4c-0.5,4.1-4,7.2-8.2,7.2h-2c1,2.1,3.2,3.6,5.8,3.6
	l6.9,0L16.7,16.9z"/>
<path class="st0" d="M13.6,2.1C12.3,0.8,10.5,0,8.6,0c-4,0-7.2,3.2-7.2,7.2c0,1.6,0.5,3.2,1.5,4.4L3,11.7l-3,2.7l8.6,0
	c4,0,7.2-3.2,7.2-7.2C15.8,5.3,15,3.5,13.6,2.1z M8.6,13.4l-6.1,0l1.9-1.7L4,11.4c-1.1-1.2-1.6-2.7-1.6-4.2c0-3.4,2.8-6.2,6.2-6.2
	c1.7,0,3.3,0.7,4.4,1.8c1.2,1.2,1.8,2.8,1.8,4.4C14.8,10.6,12,13.4,8.6,13.4z"/>
<path class="st0" d="M6.6,6.3H5.4v3.3h1.2V6.3z"/>
<path class="st0" d="M9.1,4.3l-1.8,2v3.3h4L12,6.1H9.3l0.6-1.7L9.1,4.3z"/>
</svg>
