<?xml version="1.0" encoding="utf-8"?>
<!-- Generator: Adobe Illustrator 25.2.3, SVG Export Plug-In . SVG Version: 6.00 Build 0)  -->
<svg version="1.1" id="Layer_1" xmlns="http://www.w3.org/2000/svg" xmlns:xlink="http://www.w3.org/1999/xlink" x="0px" y="0px"
	 viewBox="0 0 17 17" style="enable-background:new 0 0 17 17;" xml:space="preserve">
<path class="st0" d="M15.2,4.5c-0.4,0.2-0.5,0.6-0.3,0.9c0.5,1,0.7,2,0.7,3.1c0,3.9-3.2,7.1-7.1,7.1c-3.9,0-7.1-3.2-7.1-7.1
	c0-3.9,3.2-7.1,7.1-7.1c1.6,0,3.1,0.5,4.4,1.5c0.3,0.2,0.8,0.2,1-0.1c0.2-0.3,0.2-0.8-0.1-1C12.3,0.7,10.4,0,8.5,0
	C3.8,0,0,3.8,0,8.5C0,13.2,3.8,17,8.5,17c4.7,0,8.5-3.8,8.5-8.5c0-1.3-0.3-2.5-0.8-3.7C16,4.4,15.6,4.3,15.2,4.5z"/>
<path class="st0" d="M8.5,2.8c-0.4,0-0.7,0.3-0.7,0.7v5c0,0.4,0.3,0.7,0.7,0.7H12c0.4,0,0.7-0.3,0.7-0.7c0-0.4-0.3-0.7-0.7-0.7H9.2
	V3.5C9.2,3.2,8.9,2.8,8.5,2.8z"/>
</svg>
