<?xml version="1.0" encoding="utf-8"?>
<!-- Generator: Adobe Illustrator 25.2.3, SVG Export Plug-In . SVG Version: 6.00 Build 0)  -->
<svg version="1.1" id="Layer_1" xmlns="http://www.w3.org/2000/svg" xmlns:xlink="http://www.w3.org/1999/xlink" x="0px" y="0px"
	 viewBox="0 0 21 20" style="enable-background:new 0 0 21 20;" xml:space="preserve">
<style type="text/css">
	.st0{fill:#9D9D9D;}
</style>
<path class="st0" d="M0.5,13.6c-0.1,0-0.2,0-0.2-0.1c-0.2,0-0.3-0.2-0.3-0.4V2.4C0,1,1,0,2.3,0h7.3c1.3,0,2.3,1,2.3,2.4v6.2
	c0,1.3-1,2.4-2.3,2.4H4.3l-3.5,2.6C0.6,13.6,0.5,13.6,0.5,13.6z M2.3,1C1.5,1,0.9,1.6,0.9,2.4v9.9l2.9-2.2C3.9,10,4,10,4.1,10h5.5
	c0.7,0,1.4-0.7,1.4-1.4V2.4c0-0.8-0.6-1.4-1.4-1.4H2.3z"/>
<path class="st0" d="M19.5,20c-0.1,0-0.2,0-0.3-0.1l-3.5-2.8h-5.3c-1.3,0-2.3-1-2.3-2.4V11c0-0.3,0.2-0.5,0.5-0.5s0.5,0.2,0.5,0.5
	v3.8c0,0.8,0.6,1.4,1.4,1.4h5.5c0.1,0,0.2,0,0.3,0.1l2.9,2.3V8.1c0-0.8-0.6-1.4-1.4-1.4h-6.4c-0.3,0-0.5-0.2-0.5-0.5
	c0-0.3,0.2-0.5,0.5-0.5h6.4c1.3,0,2.3,1,2.3,2.4v11.4c0,0.2-0.1,0.4-0.3,0.5C19.7,20,19.6,20,19.5,20z"/>
<path class="st0" d="M7.7,8.1c-0.3,0-0.5-0.2-0.5-0.5V4.8c0-0.8-0.6-1.4-1.4-1.4C5.2,3.3,4.5,4,4.5,4.8v2.9c0,0.3-0.2,0.5-0.5,0.5
	c-0.3,0-0.5-0.2-0.5-0.5V4.8c0-1.3,1-2.4,2.3-2.4c1.3,0,2.3,1,2.3,2.4v2.9C8.2,7.9,8,8.1,7.7,8.1z"/>
<path class="st0" d="M7.7,6.2H4.1C3.8,6.2,3.6,6,3.6,5.7s0.2-0.5,0.5-0.5h3.6c0.3,0,0.5,0.2,0.5,0.5S8,6.2,7.7,6.2z"/>
<path class="st0" d="M16.8,10.5h-4.5c-0.3,0-0.5-0.2-0.5-0.5s0.2-0.5,0.5-0.5h4.5c0.3,0,0.5,0.2,0.5,0.5S17.1,10.5,16.8,10.5z"/>
<path class="st0" d="M12.3,14.3c-0.2,0-0.5-0.2-0.5-0.4c0-0.3,0.1-0.5,0.4-0.6c0,0,3.5-0.7,3.5-2.9c0-0.3,0.2-0.5,0.5-0.5
	c0.3,0,0.5,0.2,0.5,0.5C16.6,13.4,12.5,14.3,12.3,14.3z"/>
<path class="st0" d="M16.9,14.3c-0.3,0-4.5-0.8-4.3-3.8c0-0.3,0.2-0.5,0.5-0.5c0.3,0,0.5,0.2,0.5,0.5c-0.1,2.2,3.4,2.9,3.5,2.9
	c0.3,0,0.5,0.3,0.5,0.5C17.5,14.1,17.2,14.3,16.9,14.3z"/>
<path class="st0" d="M15,10.5c-0.3,0-0.5-0.2-0.5-0.5V9c0-0.3,0.2-0.5,0.5-0.5s0.5,0.2,0.5,0.5v1C15.5,10.3,15.3,10.5,15,10.5z"/>
</svg>
