<?xml version="1.0" encoding="utf-8"?>
<!-- Generator: Adobe Illustrator 25.2.3, SVG Export Plug-In . SVG Version: 6.00 Build 0)  -->
<svg version="1.1" id="Layer_1" xmlns="http://www.w3.org/2000/svg" xmlns:xlink="http://www.w3.org/1999/xlink" x="0px" y="0px"
	 viewBox="0 0 34 34" style="enable-background:new 0 0 34 34;" xml:space="preserve">
<style type="text/css">
	.st0{fill:#55ACEE;}
	.st1{fill:#F1F2F2;}
</style>
<path class="st0" d="M17,34c9.4,0,17-7.6,17-17c0-9.4-7.6-17-17-17C7.6,0,0,7.6,0,17C0,26.4,7.6,34,17,34z"/>
<path class="st1" d="M27.4,12.2c-0.7,0.3-1.5,0.5-2.3,0.6c0.8-0.5,1.5-1.3,1.8-2.2c-0.8,0.5-1.7,0.8-2.6,1c-0.7-0.8-1.8-1.3-3-1.3
	c-2.2,0-4.1,1.8-4.1,4.1c0,0.3,0,0.6,0.1,0.9C14,15.2,11,13.5,9,11.1c-0.4,0.6-0.5,1.3-0.5,2c0,1.4,0.7,2.7,1.8,3.4
	c-0.7,0-1.3-0.2-1.8-0.5c0,0,0,0,0,0.1c0,2,1.4,3.6,3.3,4c-0.3,0.1-0.7,0.2-1.1,0.2c-0.3,0-0.5,0-0.8-0.1c0.5,1.6,2,2.8,3.8,2.8
	c-1.4,1.1-3.2,1.7-5.1,1.7c-0.3,0-0.6,0-1-0.1c1.8,1.2,3.9,1.8,6.2,1.8c7.5,0,11.6-6.2,11.6-11.6c0-0.2,0-0.4,0-0.5
	C26.2,13.8,26.9,13,27.4,12.2z"/>
</svg>
