<?xml version="1.0" encoding="utf-8"?>
<!-- Generator: Adobe Illustrator 24.3.0, SVG Export Plug-In . SVG Version: 6.00 Build 0)  -->
<svg version="1.1" id="Layer_1" xmlns="http://www.w3.org/2000/svg" xmlns:xlink="http://www.w3.org/1999/xlink" x="0px" y="0px"
	 viewBox="0 0 52 59" style="enable-background:new 0 0 52 59;" xml:space="preserve">
<style type="text/css">
	.st0{fill:#E2E5E7;}
	.st1{fill:#B0B7BD;}
	.st2{fill:#CAD1D8;}
	.st3{fill:#F9C04F;}
	.st4{fill:#FFFFFF;}
</style>
<path class="st0" d="M11.1,0c-2,0-3.7,1.7-3.7,3.7v51.6c0,2,1.7,3.7,3.7,3.7h37.1c2,0,3.7-1.7,3.7-3.7V14.7L37.1,0H11.1z"/>
<path class="st1" d="M40.9,14.7H52L37.1,0v11.1C37.1,13.1,38.8,14.7,40.9,14.7z"/>
<path class="st2" d="M52,25.8L40.9,14.7H52V25.8z"/>
<path class="st3" d="M44.6,47.9c0,1-0.8,1.8-1.9,1.8H1.9c-1,0-1.9-0.8-1.9-1.8V29.5c0-1,0.8-1.8,1.9-1.8h40.9c1,0,1.9,0.8,1.9,1.8
	V47.9z"/>
<path class="st2" d="M42.7,49.8H7.4v1.8h35.3c1,0,1.9-0.8,1.9-1.8v-1.8C44.6,49,43.7,49.8,42.7,49.8z"/>
<path class="st4" d="M17,33.9c0.2,0,0.4,0.1,0.6,0.2c0.1,0.1,0.2,0.3,0.2,0.5s-0.1,0.4-0.2,0.5c-0.1,0.1-0.3,0.2-0.6,0.2h-2v6.8
	c0,0.2-0.1,0.4-0.2,0.6c-0.2,0.1-0.4,0.2-0.6,0.2c-0.2,0-0.4-0.1-0.6-0.2c-0.2-0.2-0.2-0.3-0.2-0.6v-6.8h-2c-0.2,0-0.4-0.1-0.6-0.2
	s-0.2-0.3-0.2-0.5c0-0.2,0.1-0.4,0.2-0.5c0.2-0.1,0.3-0.2,0.6-0.2H17z M25.9,41.8c0.1,0.1,0.2,0.3,0.2,0.5c0,0.2-0.1,0.4-0.2,0.6
	c-0.2,0.1-0.3,0.2-0.5,0.2c-0.3,0-0.5-0.1-0.6-0.3l-2.3-3.1l-2.2,3.1c-0.2,0.2-0.4,0.4-0.6,0.4c-0.2,0-0.4-0.1-0.5-0.2
	c-0.1-0.1-0.2-0.3-0.2-0.5c0-0.2,0.1-0.4,0.2-0.5l2.5-3.4l-2.5-3.3c-0.1-0.1-0.2-0.3-0.2-0.5c0-0.2,0.1-0.4,0.2-0.6
	c0.2-0.2,0.3-0.2,0.5-0.2c0.3,0,0.5,0.1,0.6,0.3l2.3,3l2.2-3c0.1-0.1,0.2-0.2,0.3-0.3c0.1-0.1,0.2-0.1,0.3-0.1
	c0.2,0,0.4,0.1,0.5,0.2c0.1,0.1,0.2,0.3,0.2,0.5c0,0.2-0.1,0.3-0.2,0.5l-2.5,3.3L25.9,41.8z M33.6,33.9c0.2,0,0.4,0.1,0.6,0.2
	c0.1,0.1,0.2,0.3,0.2,0.5s-0.1,0.4-0.2,0.5c-0.1,0.1-0.3,0.2-0.6,0.2h-2v6.8c0,0.2-0.1,0.4-0.2,0.6C31.2,42.9,31,43,30.7,43
	c-0.2,0-0.4-0.1-0.6-0.2c-0.2-0.2-0.2-0.3-0.2-0.6v-6.8h-2c-0.2,0-0.4-0.1-0.6-0.2C27.1,35,27,34.9,27,34.6c0-0.2,0.1-0.4,0.2-0.5
	c0.2-0.1,0.3-0.2,0.6-0.2H33.6z"/>
</svg>
