<?xml version="1.0" encoding="utf-8"?>
<!-- Generator: Adobe Illustrator 25.2.3, SVG Export Plug-In . SVG Version: 6.00 Build 0)  -->
<svg version="1.1" id="Layer_1" xmlns="http://www.w3.org/2000/svg" xmlns:xlink="http://www.w3.org/1999/xlink" x="0px" y="0px"
	 viewBox="0 0 18 18" style="enable-background:new 0 0 18 18;" xml:space="preserve">
<style type="text/css">
	.st0{fill:#9D9D9D;}
</style>
<path class="st0" d="M16.3,1.6c-2.2-2.2-5.7-2.2-7.9,0L7.6,2.5c-0.3,0.3-0.3,0.7,0,1c0.3,0.3,0.7,0.3,1,0l0.8-0.8
	c1.7-1.6,4.3-1.5,5.9,0.1c1.5,1.6,1.5,4.1,0,5.7l-0.8,0.8c-0.3,0.3-0.3,0.7,0,1c0.3,0.3,0.7,0.3,1,0l0.8-0.8
	c2.2-2.2,2.3-5.6,0.1-7.8C16.4,1.6,16.4,1.6,16.3,1.6z"/>
<path class="st0" d="M9.3,14.6l-0.8,0.8c-4,3.7-9.6-1.8-5.9-5.9l0.8-0.8c0.3-0.3,0.3-0.7,0-1c-0.3-0.3-0.7-0.3-1,0L1.6,8.5
	c-2.2,2.2-2.1,5.7,0.1,7.9c2.2,2.1,5.6,2.1,7.8,0l0.8-0.8c0.3-0.3,0.3-0.7,0-1C10,14.3,9.6,14.3,9.3,14.6z"/>
<path class="st0" d="M11,5.9l-5.2,5.2c-0.3,0.3-0.3,0.7,0,1c0.3,0.3,0.7,0.3,1,0l5.2-5.2c0.3-0.3,0.3-0.7,0-1
	C11.8,5.6,11.3,5.6,11,5.9z"/>
</svg>
