<?xml version="1.0" encoding="utf-8"?>
<!-- Generator: Adobe Illustrator 24.3.0, SVG Export Plug-In . SVG Version: 6.00 Build 0)  -->
<svg version="1.1" id="Layer_1" xmlns="http://www.w3.org/2000/svg" xmlns:xlink="http://www.w3.org/1999/xlink" x="0px" y="0px"
	 viewBox="0 0 50 44" style="enable-background:new 0 0 50 44;" xml:space="preserve">
<style type="text/css">
	.st0{fill:#DFE7F4;}
	.st1{fill:#C7CFE1;}
	.st2{fill:#FF641A;}
	.st3{fill:#F03800;}
	.st4{fill:#F0F7FF;}
</style>
<path class="st0" d="M0,37.7V44h25h25v-6.3H25H0z"/>
<path class="st0" d="M25,0H0v6.3h25h25V0H25z"/>
<path class="st1" d="M25,0h25v6.3H25V0z"/>
<path class="st1" d="M25,37.7h25V44H25V37.7z"/>
<path class="st2" d="M25,6.3H1.6v31.4H25h23.4V6.3H25z"/>
<path class="st3" d="M25,6.3h23.4v31.4H25V6.3z"/>
<path class="st4" d="M25,15.9l-4.7-3.1v18.4l4.7-3.1l9-6.1L25,15.9z"/>
<path class="st0" d="M25,15.9v12.2l9-6.1L25,15.9z"/>
</svg>
