<?xml version="1.0" encoding="utf-8"?>
<!-- Generator: Adobe Illustrator 25.2.3, SVG Export Plug-In . SVG Version: 6.00 Build 0)  -->
<svg version="1.1" id="Layer_1" xmlns="http://www.w3.org/2000/svg" xmlns:xlink="http://www.w3.org/1999/xlink" x="0px" y="0px"
	 viewBox="0 0 18 18" style="enable-background:new 0 0 18 18;" xml:space="preserve">
<style type="text/css">
	.st0{fill:#A1A1A1;}
</style>
<path class="st0" d="M9,0C4,0,0,4,0,9c0,5,4,9,9,9c5,0,9-4,9-9C18,4,14,0,9,0z M10.9,4.7C10.3,4.8,9.7,4.9,9,4.9S7.7,4.8,7.1,4.7
	C7.6,2.4,8.4,1.1,9,1.1S10.4,2.4,10.9,4.7z M10.9,1.4c1.4,0.3,2.6,1,3.6,2c-0.7,0.5-1.6,0.8-2.5,1.1C11.8,3.2,11.4,2.2,10.9,1.4z
	 M6.7,8.4c0-1,0.1-1.9,0.2-2.7C7.6,5.9,8.3,6,9,6c0.7,0,1.4-0.1,2.1-0.2c0.1,0.8,0.2,1.7,0.2,2.7H6.7z M11.3,9.6
	c0,1-0.1,1.9-0.2,2.7C10.4,12.1,9.7,12,9,12c-0.7,0-1.4,0.1-2.1,0.2c-0.1-0.8-0.2-1.7-0.2-2.7H11.3z M6,4.4C5.1,4.2,4.2,3.8,3.5,3.4
	c1-1,2.2-1.6,3.6-2C6.6,2.2,6.2,3.2,6,4.4z M5.8,5.6C5.6,6.5,5.6,7.5,5.5,8.5H1.2c0.1-1.6,0.7-3,1.6-4.2C3.6,4.8,4.7,5.2,5.8,5.6z
	 M5.5,9.6c0,1,0.1,2,0.2,2.9c-1.1,0.3-2.1,0.7-3,1.3c-0.9-1.2-1.5-2.7-1.6-4.2H5.5z M6,13.6c0.3,1.2,0.6,2.3,1.1,3.1
	c-1.4-0.3-2.6-1-3.6-2C4.2,14.2,5.1,13.8,6,13.6z M7.1,13.3c0.6-0.1,1.3-0.2,1.9-0.2s1.3,0.1,1.9,0.2c-0.5,2.2-1.3,3.6-1.9,3.6
	S7.6,15.6,7.1,13.3z M12,13.6c0.9,0.2,1.7,0.6,2.5,1.1c-1,1-2.2,1.6-3.6,2C11.4,15.8,11.8,14.8,12,13.6z M12.2,12.4
	c0.2-0.9,0.2-1.9,0.2-2.9h4.4c-0.1,1.6-0.7,3-1.6,4.2C14.4,13.2,13.3,12.8,12.2,12.4z M12.5,8.4c0-1-0.1-2-0.2-2.9
	c1.1-0.3,2.1-0.7,3-1.3c0.9,1.2,1.5,2.6,1.6,4.2H12.5z"/>
</svg>
