<?xml version="1.0" encoding="utf-8"?>
<!-- Generator: Adobe Illustrator 24.3.0, SVG Export Plug-In . SVG Version: 6.00 Build 0)  -->
<svg version="1.1" id="Layer_1" xmlns="http://www.w3.org/2000/svg" xmlns:xlink="http://www.w3.org/1999/xlink" x="0px" y="0px"
	 viewBox="0 0 57 55" style="enable-background:new 0 0 57 55;" xml:space="preserve">
<style type="text/css">
	.st0{fill:#ECEFF1;}
	.st1{fill:#1976D2;}
	.st2{fill:#1565C0;}
	.st3{fill:#FAFAFA;}
</style>
<path class="st0" d="M55.2,47.8H30.3c-1,0-1.8-0.8-1.8-1.8c0-1,0-35,0-36c0-1,0.8-1.8,1.8-1.8h24.9c1,0,1.8,0.8,1.8,1.8v36
	C57,47,56.2,47.8,55.2,47.8z"/>
<path class="st1" d="M48.1,19H30.3c-1,0-1.8-0.8-1.8-1.8c0-1,0.8-1.8,1.8-1.8h17.8c1,0,1.8,0.8,1.8,1.8C49.9,18.2,49.1,19,48.1,19z"
	/>
<path class="st1" d="M48.1,26.2H30.3c-1,0-1.8-0.8-1.8-1.8c0-1,0.8-1.8,1.8-1.8h17.8c1,0,1.8,0.8,1.8,1.8S49.1,26.2,48.1,26.2z"/>
<path class="st1" d="M48.1,33.4H30.3c-1,0-1.8-0.8-1.8-1.8c0-1,0.8-1.8,1.8-1.8h17.8c1,0,1.8,0.8,1.8,1.8S49.1,33.4,48.1,33.4z"/>
<path class="st1" d="M48.1,40.6H30.3c-1,0-1.8-0.8-1.8-1.8c0-1,0.8-1.8,1.8-1.8h17.8c1,0,1.8,0.8,1.8,1.8
	C49.9,39.8,49.1,40.6,48.1,40.6z"/>
<path class="st2" d="M31.4,1.4C31,1.1,30.5,0.9,29.9,1L1.4,6.4C0.6,6.6,0,7.3,0,8.2v39.6c0,0.9,0.6,1.6,1.5,1.8L30,55
	c0.1,0,0.2,0,0.3,0c0.4,0,0.8-0.1,1.1-0.4c0.4-0.3,0.6-0.9,0.6-1.4V2.8C32.1,2.3,31.8,1.8,31.4,1.4z"/>
<path class="st3" d="M23.1,37.2c-0.1,0.8-0.7,1.5-1.5,1.6c-0.1,0-0.1,0-0.2,0c-0.7,0-1.4-0.5-1.7-1.2L16,27.7l-3.7,9.9
	c-0.3,0.8-1,1.2-1.9,1.2c-0.8-0.1-1.5-0.7-1.6-1.5L7.1,24.6c-0.1-1,0.5-1.9,1.5-2c1-0.1,1.9,0.5,2,1.5l0.8,5.6l2.9-7.8
	c0.5-1.4,2.8-1.4,3.3,0l2.7,7.3l1-8.7c0.1-1,1-1.7,2-1.6c1,0.1,1.7,1,1.6,2L23.1,37.2z"/>
</svg>
