<?xml version="1.0" encoding="utf-8"?>
<!-- Generator: Adobe Illustrator 24.3.0, SVG Export Plug-In . SVG Version: 6.00 Build 0)  -->
<svg version="1.1" id="Layer_1" xmlns="http://www.w3.org/2000/svg" xmlns:xlink="http://www.w3.org/1999/xlink" x="0px" y="0px"
	 viewBox="0 0 58 56" style="enable-background:new 0 0 58 56;" xml:space="preserve">
<style type="text/css">
	.st0{fill:#ECEFF1;}
	.st1{fill:#388E3C;}
	.st2{fill:#2E7D32;}
	.st3{fill:#FAFAFA;}
</style>
<path class="st0" d="M56.2,48.6H30.8c-1,0-1.8-0.8-1.8-1.8c0-1,0-35.8,0-36.8c0-1,0.8-1.8,1.8-1.8h25.4c1,0,1.8,0.8,1.8,1.8v36.8
	C58,47.8,57.2,48.6,56.2,48.6z"/>
<path class="st1" d="M38.1,19.2h-7.3c-1,0-1.8-0.8-1.8-1.8c0-1,0.8-1.8,1.8-1.8h7.3c1,0,1.8,0.8,1.8,1.8
	C39.9,18.4,39.1,19.2,38.1,19.2z"/>
<path class="st1" d="M38.1,26.6h-7.3c-1,0-1.8-0.8-1.8-1.8s0.8-1.8,1.8-1.8h7.3c1,0,1.8,0.8,1.8,1.8S39.1,26.6,38.1,26.6z"/>
<path class="st1" d="M38.1,33.9h-7.3c-1,0-1.8-0.8-1.8-1.8c0-1,0.8-1.8,1.8-1.8h7.3c1,0,1.8,0.8,1.8,1.8
	C39.9,33.1,39.1,33.9,38.1,33.9z"/>
<path class="st1" d="M38.1,41.3h-7.3c-1,0-1.8-0.8-1.8-1.8c0-1,0.8-1.8,1.8-1.8h7.3c1,0,1.8,0.8,1.8,1.8
	C39.9,40.5,39.1,41.3,38.1,41.3z"/>
<path class="st1" d="M48.9,19.2h-3.6c-1,0-1.8-0.8-1.8-1.8c0-1,0.8-1.8,1.8-1.8h3.6c1,0,1.8,0.8,1.8,1.8
	C50.8,18.4,49.9,19.2,48.9,19.2z"/>
<path class="st1" d="M48.9,26.6h-3.6c-1,0-1.8-0.8-1.8-1.8s0.8-1.8,1.8-1.8h3.6c1,0,1.8,0.8,1.8,1.8S49.9,26.6,48.9,26.6z"/>
<path class="st1" d="M48.9,33.9h-3.6c-1,0-1.8-0.8-1.8-1.8c0-1,0.8-1.8,1.8-1.8h3.6c1,0,1.8,0.8,1.8,1.8
	C50.8,33.1,49.9,33.9,48.9,33.9z"/>
<path class="st1" d="M48.9,41.3h-3.6c-1,0-1.8-0.8-1.8-1.8c0-1,0.8-1.8,1.8-1.8h3.6c1,0,1.8,0.8,1.8,1.8
	C50.8,40.5,49.9,41.3,48.9,41.3z"/>
<path class="st2" d="M32,1.2c-0.4-0.3-1-0.5-1.5-0.4l-29,5.5C0.6,6.5,0,7.3,0,8.2v40.5c0,0.9,0.6,1.6,1.5,1.8l29,5.5
	c0.1,0,0.2,0,0.3,0c0.4,0,0.8-0.1,1.2-0.4c0.4-0.3,0.7-0.9,0.7-1.4V2.6C32.6,2.1,32.4,1.6,32,1.2z"/>
<path class="st3" d="M24.9,34.6l-5.7-6.6l5.8-7.6c0.6-0.8,0.5-2-0.3-2.6c-0.8-0.6-1.9-0.5-2.5,0.3l-5.4,7l-4.5-5.2
	c-0.7-0.8-1.8-0.8-2.6-0.2c-0.8,0.7-0.8,1.8-0.2,2.6l5,5.8l-5.1,6.6c-0.6,0.8-0.5,2,0.3,2.6c0.3,0.3,0.7,0.4,1.1,0.4
	c0.5,0,1.1-0.2,1.4-0.7l4.6-6l5.3,6.1c0.4,0.4,0.9,0.6,1.4,0.6c0.4,0,0.8-0.1,1.2-0.5C25.5,36.5,25.6,35.3,24.9,34.6z"/>
</svg>
