<?xml version="1.0" encoding="utf-8"?>
<!-- Generator: Adobe Illustrator 25.2.3, SVG Export Plug-In . SVG Version: 6.00 Build 0)  -->
<svg version="1.1" id="Layer_1" xmlns="http://www.w3.org/2000/svg" xmlns:xlink="http://www.w3.org/1999/xlink" x="0px" y="0px"
	 viewBox="0 0 34 34" style="enable-background:new 0 0 34 34;" xml:space="preserve">
<style type="text/css">
	.st0{fill:#D42428;}
	.st1{fill:#CC202D;}
	.st2{fill:#FFFFFF;}
</style>
<g>
	<g>
		<path class="st0" d="M17,34c9.4,0,17-7.6,17-17c0-9.4-7.6-17-17-17C7.6,0,0,7.6,0,17C0,26.4,7.6,34,17,34z"/>
		<path class="st1" d="M29,5c6.6,6.6,6.6,17.4,0,24s-17.4,6.6-24,0L29,5z"/>
		<path class="st2" d="M25.9,13.7c0-1.4-1.2-2.6-2.6-2.6H11.2c-1.4,0-2.6,1.2-2.6,2.6v6.9c0,1.4,1.2,2.6,2.6,2.6h12.1
			c1.4,0,2.6-1.2,2.6-2.6L25.9,13.7z M15.5,20.1v-6.5l4.9,3.3L15.5,20.1z"/>
	</g>
</g>
</svg>
