<?xml version="1.0" encoding="utf-8"?>
<!-- Generator: Adobe Illustrator 24.3.0, SVG Export Plug-In . SVG Version: 6.00 Build 0)  -->
<svg version="1.1" id="Layer_1" xmlns="http://www.w3.org/2000/svg" xmlns:xlink="http://www.w3.org/1999/xlink" x="0px" y="0px"
	 viewBox="0 0 52 60" style="enable-background:new 0 0 52 60;" xml:space="preserve">
<style type="text/css">
	.st0{fill:#E2E5E7;}
	.st1{fill:#B0B7BD;}
	.st2{fill:#CAD1D8;}
	.st3{fill:#84BD5A;}
	.st4{fill:#FFFFFF;}
</style>
<path class="st0" d="M11.1,0c-2,0-3.7,1.7-3.7,3.8v52.5c0,2.1,1.7,3.8,3.7,3.8h37.1c2,0,3.7-1.7,3.7-3.8V15L37.1,0H11.1z"/>
<path class="st1" d="M40.9,15H52L37.1,0v11.3C37.1,13.3,38.8,15,40.9,15z"/>
<path class="st2" d="M52,26.2L40.9,15H52V26.2z"/>
<path class="st3" d="M44.6,48.7c0,1-0.8,1.9-1.9,1.9H1.9c-1,0-1.9-0.8-1.9-1.9V30c0-1,0.8-1.9,1.9-1.9h40.9c1,0,1.9,0.8,1.9,1.9
	V48.7z"/>
<path class="st4" d="M11.7,45c-0.9,0-1.3-0.9-0.8-1.6l5.3-7.1h-4.4c-1.3,0-1.2-1.8,0-1.8h6c1.1,0,1.5,1.1,0.6,1.9l-5.1,6.6h4.8
	c1.2,0,1.3,1.9-0.1,1.9L11.7,45z"/>
<path class="st4" d="M20.9,35.5c0-1.2,2-1.3,2,0v8.6c0,1.2-2,1.3-2,0V35.5z"/>
<path class="st4" d="M25.5,35.5c0-0.5,0.4-1,1-1h3.4c1.9,0,3.7,1.3,3.7,3.8c0,2.4-1.7,3.7-3.7,3.7h-2.5v2c0,0.7-0.4,1-1,1
	c-0.5,0-1-0.4-1-1V35.5z M27.5,36.4v3.7h2.5c1,0,1.8-0.9,1.8-1.8c0-1-0.8-1.9-1.8-1.9H27.5z"/>
<path class="st2" d="M42.7,50.6H7.4v1.9h35.3c1,0,1.9-0.8,1.9-1.9v-1.9C44.6,49.8,43.7,50.6,42.7,50.6z"/>
</svg>
